<?xml version="1.0" encoding="utf-8" standalone="no"?>
<!DOCTYPE svg PUBLIC "-//W3C//DTD SVG 1.1//EN"
  "http://www.w3.org/Graphics/SVG/1.1/DTD/svg11.dtd">
<svg xmlns:xlink="http://www.w3.org/1999/xlink" width="618.528125pt" height="269.79744pt" viewBox="0 0 618.528125 269.79744" xmlns="http://www.w3.org/2000/svg" version="1.1">
 <metadata>
  <rdf:RDF xmlns:dc="http://purl.org/dc/elements/1.1/" xmlns:cc="http://creativecommons.org/ns#" xmlns:rdf="http://www.w3.org/1999/02/22-rdf-syntax-ns#">
   <cc:Work>
    <dc:type rdf:resource="http://purl.org/dc/dcmitype/StillImage"/>
    <dc:date>2026-05-31T14:01:49.917620</dc:date>
    <dc:format>image/svg+xml</dc:format>
    <dc:creator>
     <cc:Agent>
      <dc:title>Matplotlib v3.10.9, https://matplotlib.org/</dc:title>
     </cc:Agent>
    </dc:creator>
   </cc:Work>
  </rdf:RDF>
 </metadata>
 <defs>
  <style type="text/css">*{stroke-linejoin: round; stroke-linecap: butt}</style>
 </defs>
 <g id="figure_1">
  <g id="patch_1">
   <path d="M 0 269.79744 
L 618.528125 269.79744 
L 618.528125 0 
L 0 0 
L 0 269.79744 
z
" style="fill: none; opacity: 0"/>
  </g>
  <g id="axes_1">
   <g id="patch_2">
    <path d="M 53.328125 218.158125 
L 611.328125 218.158125 
L 611.328125 22.318125 
L 53.328125 22.318125 
L 53.328125 218.158125 
z
" style="fill: none; opacity: 0"/>
   </g>
   <g id="matplotlib.axis_1">
    <g id="xtick_1">
     <g id="line2d_1">
      <path d="M 73.456148 218.158125 
L 73.456148 22.318125 
" clip-path="url(#p176ac04777)" style="fill: none; stroke: #404040; stroke-width: 0.8; stroke-linecap: square"/>
     </g>
     <g id="line2d_2">
      <defs>
       <path id="m4dd640f2c9" d="M 0 0 
L 0 3.5 
" style="stroke: #777777; stroke-width: 0.8"/>
      </defs>
      <g>
       <use xlink:href="#m4dd640f2c9" x="73.456148" y="218.158125" style="fill: #777777; stroke: #777777; stroke-width: 0.8"/>
      </g>
     </g>
     <g id="text_1">
      <!-- 2024-01-01 -->
      <g style="fill: #777777" transform="translate(22.086697 260.796377) rotate(-30) scale(0.1 -0.1)">
       <defs>
        <path id="DejaVuSans-32" d="M 1228 531 
L 3431 531 
L 3431 0 
L 469 0 
L 469 531 
Q 828 903 1448 1529 
Q 2069 2156 2228 2338 
Q 2531 2678 2651 2914 
Q 2772 3150 2772 3378 
Q 2772 3750 2511 3984 
Q 2250 4219 1831 4219 
Q 1534 4219 1204 4116 
Q 875 4013 500 3803 
L 500 4441 
Q 881 4594 1212 4672 
Q 1544 4750 1819 4750 
Q 2544 4750 2975 4387 
Q 3406 4025 3406 3419 
Q 3406 3131 3298 2873 
Q 3191 2616 2906 2266 
Q 2828 2175 2409 1742 
Q 1991 1309 1228 531 
z
" transform="scale(0.015625)"/>
        <path id="DejaVuSans-30" d="M 2034 4250 
Q 1547 4250 1301 3770 
Q 1056 3291 1056 2328 
Q 1056 1369 1301 889 
Q 1547 409 2034 409 
Q 2525 409 2770 889 
Q 3016 1369 3016 2328 
Q 3016 3291 2770 3770 
Q 2525 4250 2034 4250 
z
M 2034 4750 
Q 2819 4750 3233 4129 
Q 3647 3509 3647 2328 
Q 3647 1150 3233 529 
Q 2819 -91 2034 -91 
Q 1250 -91 836 529 
Q 422 1150 422 2328 
Q 422 3509 836 4129 
Q 1250 4750 2034 4750 
z
" transform="scale(0.015625)"/>
        <path id="DejaVuSans-34" d="M 2419 4116 
L 825 1625 
L 2419 1625 
L 2419 4116 
z
M 2253 4666 
L 3047 4666 
L 3047 1625 
L 3713 1625 
L 3713 1100 
L 3047 1100 
L 3047 0 
L 2419 0 
L 2419 1100 
L 313 1100 
L 313 1709 
L 2253 4666 
z
" transform="scale(0.015625)"/>
        <path id="DejaVuSans-2d" d="M 313 2009 
L 1997 2009 
L 1997 1497 
L 313 1497 
L 313 2009 
z
" transform="scale(0.015625)"/>
        <path id="DejaVuSans-31" d="M 794 531 
L 1825 531 
L 1825 4091 
L 703 3866 
L 703 4441 
L 1819 4666 
L 2450 4666 
L 2450 531 
L 3481 531 
L 3481 0 
L 794 0 
L 794 531 
z
" transform="scale(0.015625)"/>
       </defs>
       <use xlink:href="#DejaVuSans-32"/>
       <use xlink:href="#DejaVuSans-30" transform="translate(63.623047 0)"/>
       <use xlink:href="#DejaVuSans-32" transform="translate(127.246094 0)"/>
       <use xlink:href="#DejaVuSans-34" transform="translate(190.869141 0)"/>
       <use xlink:href="#DejaVuSans-2d" transform="translate(254.492188 0)"/>
       <use xlink:href="#DejaVuSans-30" transform="translate(290.576172 0)"/>
       <use xlink:href="#DejaVuSans-31" transform="translate(354.199219 0)"/>
       <use xlink:href="#DejaVuSans-2d" transform="translate(417.822266 0)"/>
       <use xlink:href="#DejaVuSans-30" transform="translate(453.90625 0)"/>
       <use xlink:href="#DejaVuSans-31" transform="translate(517.529297 0)"/>
      </g>
     </g>
    </g>
    <g id="xtick_2">
     <g id="line2d_3">
      <path d="M 126.394013 218.158125 
L 126.394013 22.318125 
" clip-path="url(#p176ac04777)" style="fill: none; stroke: #404040; stroke-width: 0.8; stroke-linecap: square"/>
     </g>
     <g id="line2d_4">
      <g>
       <use xlink:href="#m4dd640f2c9" x="126.394013" y="218.158125" style="fill: #777777; stroke: #777777; stroke-width: 0.8"/>
      </g>
     </g>
     <g id="text_2">
      <!-- 2024-04-01 -->
      <g style="fill: #777777" transform="translate(75.024562 260.796377) rotate(-30) scale(0.1 -0.1)">
       <use xlink:href="#DejaVuSans-32"/>
       <use xlink:href="#DejaVuSans-30" transform="translate(63.623047 0)"/>
       <use xlink:href="#DejaVuSans-32" transform="translate(127.246094 0)"/>
       <use xlink:href="#DejaVuSans-34" transform="translate(190.869141 0)"/>
       <use xlink:href="#DejaVuSans-2d" transform="translate(254.492188 0)"/>
       <use xlink:href="#DejaVuSans-30" transform="translate(290.576172 0)"/>
       <use xlink:href="#DejaVuSans-34" transform="translate(354.199219 0)"/>
       <use xlink:href="#DejaVuSans-2d" transform="translate(417.822266 0)"/>
       <use xlink:href="#DejaVuSans-30" transform="translate(453.90625 0)"/>
       <use xlink:href="#DejaVuSans-31" transform="translate(517.529297 0)"/>
      </g>
     </g>
    </g>
    <g id="xtick_3">
     <g id="line2d_5">
      <path d="M 179.331878 218.158125 
L 179.331878 22.318125 
" clip-path="url(#p176ac04777)" style="fill: none; stroke: #404040; stroke-width: 0.8; stroke-linecap: square"/>
     </g>
     <g id="line2d_6">
      <g>
       <use xlink:href="#m4dd640f2c9" x="179.331878" y="218.158125" style="fill: #777777; stroke: #777777; stroke-width: 0.8"/>
      </g>
     </g>
     <g id="text_3">
      <!-- 2024-07-01 -->
      <g style="fill: #777777" transform="translate(127.962427 260.796377) rotate(-30) scale(0.1 -0.1)">
       <defs>
        <path id="DejaVuSans-37" d="M 525 4666 
L 3525 4666 
L 3525 4397 
L 1831 0 
L 1172 0 
L 2766 4134 
L 525 4134 
L 525 4666 
z
" transform="scale(0.015625)"/>
       </defs>
       <use xlink:href="#DejaVuSans-32"/>
       <use xlink:href="#DejaVuSans-30" transform="translate(63.623047 0)"/>
       <use xlink:href="#DejaVuSans-32" transform="translate(127.246094 0)"/>
       <use xlink:href="#DejaVuSans-34" transform="translate(190.869141 0)"/>
       <use xlink:href="#DejaVuSans-2d" transform="translate(254.492188 0)"/>
       <use xlink:href="#DejaVuSans-30" transform="translate(290.576172 0)"/>
       <use xlink:href="#DejaVuSans-37" transform="translate(354.199219 0)"/>
       <use xlink:href="#DejaVuSans-2d" transform="translate(417.822266 0)"/>
       <use xlink:href="#DejaVuSans-30" transform="translate(453.90625 0)"/>
       <use xlink:href="#DejaVuSans-31" transform="translate(517.529297 0)"/>
      </g>
     </g>
    </g>
    <g id="xtick_4">
     <g id="line2d_7">
      <path d="M 232.851478 218.158125 
L 232.851478 22.318125 
" clip-path="url(#p176ac04777)" style="fill: none; stroke: #404040; stroke-width: 0.8; stroke-linecap: square"/>
     </g>
     <g id="line2d_8">
      <g>
       <use xlink:href="#m4dd640f2c9" x="232.851478" y="218.158125" style="fill: #777777; stroke: #777777; stroke-width: 0.8"/>
      </g>
     </g>
     <g id="text_4">
      <!-- 2024-10-01 -->
      <g style="fill: #777777" transform="translate(181.482026 260.796377) rotate(-30) scale(0.1 -0.1)">
       <use xlink:href="#DejaVuSans-32"/>
       <use xlink:href="#DejaVuSans-30" transform="translate(63.623047 0)"/>
       <use xlink:href="#DejaVuSans-32" transform="translate(127.246094 0)"/>
       <use xlink:href="#DejaVuSans-34" transform="translate(190.869141 0)"/>
       <use xlink:href="#DejaVuSans-2d" transform="translate(254.492188 0)"/>
       <use xlink:href="#DejaVuSans-31" transform="translate(290.576172 0)"/>
       <use xlink:href="#DejaVuSans-30" transform="translate(354.199219 0)"/>
       <use xlink:href="#DejaVuSans-2d" transform="translate(417.822266 0)"/>
       <use xlink:href="#DejaVuSans-30" transform="translate(453.90625 0)"/>
       <use xlink:href="#DejaVuSans-31" transform="translate(517.529297 0)"/>
      </g>
     </g>
    </g>
    <g id="xtick_5">
     <g id="line2d_9">
      <path d="M 286.371077 218.158125 
L 286.371077 22.318125 
" clip-path="url(#p176ac04777)" style="fill: none; stroke: #404040; stroke-width: 0.8; stroke-linecap: square"/>
     </g>
     <g id="line2d_10">
      <g>
       <use xlink:href="#m4dd640f2c9" x="286.371077" y="218.158125" style="fill: #777777; stroke: #777777; stroke-width: 0.8"/>
      </g>
     </g>
     <g id="text_5">
      <!-- 2025-01-01 -->
      <g style="fill: #777777" transform="translate(235.001626 260.796377) rotate(-30) scale(0.1 -0.1)">
       <defs>
        <path id="DejaVuSans-35" d="M 691 4666 
L 3169 4666 
L 3169 4134 
L 1269 4134 
L 1269 2991 
Q 1406 3038 1543 3061 
Q 1681 3084 1819 3084 
Q 2600 3084 3056 2656 
Q 3513 2228 3513 1497 
Q 3513 744 3044 326 
Q 2575 -91 1722 -91 
Q 1428 -91 1123 -41 
Q 819 9 494 109 
L 494 744 
Q 775 591 1075 516 
Q 1375 441 1709 441 
Q 2250 441 2565 725 
Q 2881 1009 2881 1497 
Q 2881 1984 2565 2268 
Q 2250 2553 1709 2553 
Q 1456 2553 1204 2497 
Q 953 2441 691 2322 
L 691 4666 
z
" transform="scale(0.015625)"/>
       </defs>
       <use xlink:href="#DejaVuSans-32"/>
       <use xlink:href="#DejaVuSans-30" transform="translate(63.623047 0)"/>
       <use xlink:href="#DejaVuSans-32" transform="translate(127.246094 0)"/>
       <use xlink:href="#DejaVuSans-35" transform="translate(190.869141 0)"/>
       <use xlink:href="#DejaVuSans-2d" transform="translate(254.492188 0)"/>
       <use xlink:href="#DejaVuSans-30" transform="translate(290.576172 0)"/>
       <use xlink:href="#DejaVuSans-31" transform="translate(354.199219 0)"/>
       <use xlink:href="#DejaVuSans-2d" transform="translate(417.822266 0)"/>
       <use xlink:href="#DejaVuSans-30" transform="translate(453.90625 0)"/>
       <use xlink:href="#DejaVuSans-31" transform="translate(517.529297 0)"/>
      </g>
     </g>
    </g>
    <g id="xtick_6">
     <g id="line2d_11">
      <path d="M 338.727208 218.158125 
L 338.727208 22.318125 
" clip-path="url(#p176ac04777)" style="fill: none; stroke: #404040; stroke-width: 0.8; stroke-linecap: square"/>
     </g>
     <g id="line2d_12">
      <g>
       <use xlink:href="#m4dd640f2c9" x="338.727208" y="218.158125" style="fill: #777777; stroke: #777777; stroke-width: 0.8"/>
      </g>
     </g>
     <g id="text_6">
      <!-- 2025-04-01 -->
      <g style="fill: #777777" transform="translate(287.357756 260.796377) rotate(-30) scale(0.1 -0.1)">
       <use xlink:href="#DejaVuSans-32"/>
       <use xlink:href="#DejaVuSans-30" transform="translate(63.623047 0)"/>
       <use xlink:href="#DejaVuSans-32" transform="translate(127.246094 0)"/>
       <use xlink:href="#DejaVuSans-35" transform="translate(190.869141 0)"/>
       <use xlink:href="#DejaVuSans-2d" transform="translate(254.492188 0)"/>
       <use xlink:href="#DejaVuSans-30" transform="translate(290.576172 0)"/>
       <use xlink:href="#DejaVuSans-34" transform="translate(354.199219 0)"/>
       <use xlink:href="#DejaVuSans-2d" transform="translate(417.822266 0)"/>
       <use xlink:href="#DejaVuSans-30" transform="translate(453.90625 0)"/>
       <use xlink:href="#DejaVuSans-31" transform="translate(517.529297 0)"/>
      </g>
     </g>
    </g>
    <g id="xtick_7">
     <g id="line2d_13">
      <path d="M 391.665072 218.158125 
L 391.665072 22.318125 
" clip-path="url(#p176ac04777)" style="fill: none; stroke: #404040; stroke-width: 0.8; stroke-linecap: square"/>
     </g>
     <g id="line2d_14">
      <g>
       <use xlink:href="#m4dd640f2c9" x="391.665072" y="218.158125" style="fill: #777777; stroke: #777777; stroke-width: 0.8"/>
      </g>
     </g>
     <g id="text_7">
      <!-- 2025-07-01 -->
      <g style="fill: #777777" transform="translate(340.295621 260.796377) rotate(-30) scale(0.1 -0.1)">
       <use xlink:href="#DejaVuSans-32"/>
       <use xlink:href="#DejaVuSans-30" transform="translate(63.623047 0)"/>
       <use xlink:href="#DejaVuSans-32" transform="translate(127.246094 0)"/>
       <use xlink:href="#DejaVuSans-35" transform="translate(190.869141 0)"/>
       <use xlink:href="#DejaVuSans-2d" transform="translate(254.492188 0)"/>
       <use xlink:href="#DejaVuSans-30" transform="translate(290.576172 0)"/>
       <use xlink:href="#DejaVuSans-37" transform="translate(354.199219 0)"/>
       <use xlink:href="#DejaVuSans-2d" transform="translate(417.822266 0)"/>
       <use xlink:href="#DejaVuSans-30" transform="translate(453.90625 0)"/>
       <use xlink:href="#DejaVuSans-31" transform="translate(517.529297 0)"/>
      </g>
     </g>
    </g>
    <g id="xtick_8">
     <g id="line2d_15">
      <path d="M 445.184672 218.158125 
L 445.184672 22.318125 
" clip-path="url(#p176ac04777)" style="fill: none; stroke: #404040; stroke-width: 0.8; stroke-linecap: square"/>
     </g>
     <g id="line2d_16">
      <g>
       <use xlink:href="#m4dd640f2c9" x="445.184672" y="218.158125" style="fill: #777777; stroke: #777777; stroke-width: 0.8"/>
      </g>
     </g>
     <g id="text_8">
      <!-- 2025-10-01 -->
      <g style="fill: #777777" transform="translate(393.815221 260.796377) rotate(-30) scale(0.1 -0.1)">
       <use xlink:href="#DejaVuSans-32"/>
       <use xlink:href="#DejaVuSans-30" transform="translate(63.623047 0)"/>
       <use xlink:href="#DejaVuSans-32" transform="translate(127.246094 0)"/>
       <use xlink:href="#DejaVuSans-35" transform="translate(190.869141 0)"/>
       <use xlink:href="#DejaVuSans-2d" transform="translate(254.492188 0)"/>
       <use xlink:href="#DejaVuSans-31" transform="translate(290.576172 0)"/>
       <use xlink:href="#DejaVuSans-30" transform="translate(354.199219 0)"/>
       <use xlink:href="#DejaVuSans-2d" transform="translate(417.822266 0)"/>
       <use xlink:href="#DejaVuSans-30" transform="translate(453.90625 0)"/>
       <use xlink:href="#DejaVuSans-31" transform="translate(517.529297 0)"/>
      </g>
     </g>
    </g>
    <g id="xtick_9">
     <g id="line2d_17">
      <path d="M 498.704272 218.158125 
L 498.704272 22.318125 
" clip-path="url(#p176ac04777)" style="fill: none; stroke: #404040; stroke-width: 0.8; stroke-linecap: square"/>
     </g>
     <g id="line2d_18">
      <g>
       <use xlink:href="#m4dd640f2c9" x="498.704272" y="218.158125" style="fill: #777777; stroke: #777777; stroke-width: 0.8"/>
      </g>
     </g>
     <g id="text_9">
      <!-- 2026-01-01 -->
      <g style="fill: #777777" transform="translate(447.33482 260.796377) rotate(-30) scale(0.1 -0.1)">
       <defs>
        <path id="DejaVuSans-36" d="M 2113 2584 
Q 1688 2584 1439 2293 
Q 1191 2003 1191 1497 
Q 1191 994 1439 701 
Q 1688 409 2113 409 
Q 2538 409 2786 701 
Q 3034 994 3034 1497 
Q 3034 2003 2786 2293 
Q 2538 2584 2113 2584 
z
M 3366 4563 
L 3366 3988 
Q 3128 4100 2886 4159 
Q 2644 4219 2406 4219 
Q 1781 4219 1451 3797 
Q 1122 3375 1075 2522 
Q 1259 2794 1537 2939 
Q 1816 3084 2150 3084 
Q 2853 3084 3261 2657 
Q 3669 2231 3669 1497 
Q 3669 778 3244 343 
Q 2819 -91 2113 -91 
Q 1303 -91 875 529 
Q 447 1150 447 2328 
Q 447 3434 972 4092 
Q 1497 4750 2381 4750 
Q 2619 4750 2861 4703 
Q 3103 4656 3366 4563 
z
" transform="scale(0.015625)"/>
       </defs>
       <use xlink:href="#DejaVuSans-32"/>
       <use xlink:href="#DejaVuSans-30" transform="translate(63.623047 0)"/>
       <use xlink:href="#DejaVuSans-32" transform="translate(127.246094 0)"/>
       <use xlink:href="#DejaVuSans-36" transform="translate(190.869141 0)"/>
       <use xlink:href="#DejaVuSans-2d" transform="translate(254.492188 0)"/>
       <use xlink:href="#DejaVuSans-30" transform="translate(290.576172 0)"/>
       <use xlink:href="#DejaVuSans-31" transform="translate(354.199219 0)"/>
       <use xlink:href="#DejaVuSans-2d" transform="translate(417.822266 0)"/>
       <use xlink:href="#DejaVuSans-30" transform="translate(453.90625 0)"/>
       <use xlink:href="#DejaVuSans-31" transform="translate(517.529297 0)"/>
      </g>
     </g>
    </g>
    <g id="xtick_10">
     <g id="line2d_19">
      <path d="M 551.060402 218.158125 
L 551.060402 22.318125 
" clip-path="url(#p176ac04777)" style="fill: none; stroke: #404040; stroke-width: 0.8; stroke-linecap: square"/>
     </g>
     <g id="line2d_20">
      <g>
       <use xlink:href="#m4dd640f2c9" x="551.060402" y="218.158125" style="fill: #777777; stroke: #777777; stroke-width: 0.8"/>
      </g>
     </g>
     <g id="text_10">
      <!-- 2026-04-01 -->
      <g style="fill: #777777" transform="translate(499.690951 260.796377) rotate(-30) scale(0.1 -0.1)">
       <use xlink:href="#DejaVuSans-32"/>
       <use xlink:href="#DejaVuSans-30" transform="translate(63.623047 0)"/>
       <use xlink:href="#DejaVuSans-32" transform="translate(127.246094 0)"/>
       <use xlink:href="#DejaVuSans-36" transform="translate(190.869141 0)"/>
       <use xlink:href="#DejaVuSans-2d" transform="translate(254.492188 0)"/>
       <use xlink:href="#DejaVuSans-30" transform="translate(290.576172 0)"/>
       <use xlink:href="#DejaVuSans-34" transform="translate(354.199219 0)"/>
       <use xlink:href="#DejaVuSans-2d" transform="translate(417.822266 0)"/>
       <use xlink:href="#DejaVuSans-30" transform="translate(453.90625 0)"/>
       <use xlink:href="#DejaVuSans-31" transform="translate(517.529297 0)"/>
      </g>
     </g>
    </g>
    <g id="xtick_11">
     <g id="line2d_21">
      <path d="M 603.998267 218.158125 
L 603.998267 22.318125 
" clip-path="url(#p176ac04777)" style="fill: none; stroke: #404040; stroke-width: 0.8; stroke-linecap: square"/>
     </g>
     <g id="line2d_22">
      <g>
       <use xlink:href="#m4dd640f2c9" x="603.998267" y="218.158125" style="fill: #777777; stroke: #777777; stroke-width: 0.8"/>
      </g>
     </g>
     <g id="text_11">
      <!-- 2026-07-01 -->
      <g style="fill: #777777" transform="translate(552.628815 260.796377) rotate(-30) scale(0.1 -0.1)">
       <use xlink:href="#DejaVuSans-32"/>
       <use xlink:href="#DejaVuSans-30" transform="translate(63.623047 0)"/>
       <use xlink:href="#DejaVuSans-32" transform="translate(127.246094 0)"/>
       <use xlink:href="#DejaVuSans-36" transform="translate(190.869141 0)"/>
       <use xlink:href="#DejaVuSans-2d" transform="translate(254.492188 0)"/>
       <use xlink:href="#DejaVuSans-30" transform="translate(290.576172 0)"/>
       <use xlink:href="#DejaVuSans-37" transform="translate(354.199219 0)"/>
       <use xlink:href="#DejaVuSans-2d" transform="translate(417.822266 0)"/>
       <use xlink:href="#DejaVuSans-30" transform="translate(453.90625 0)"/>
       <use xlink:href="#DejaVuSans-31" transform="translate(517.529297 0)"/>
      </g>
     </g>
    </g>
   </g>
   <g id="matplotlib.axis_2">
    <g id="ytick_1">
     <g id="line2d_23">
      <path d="M 53.328125 184.094851 
L 611.328125 184.094851 
" clip-path="url(#p176ac04777)" style="fill: none; stroke: #404040; stroke-width: 0.8; stroke-linecap: square"/>
     </g>
     <g id="line2d_24">
      <defs>
       <path id="m081445013a" d="M 0 0 
L -3.5 0 
" style="stroke: #777777; stroke-width: 0.8"/>
      </defs>
      <g>
       <use xlink:href="#m081445013a" x="53.328125" y="184.094851" style="fill: #777777; stroke: #777777; stroke-width: 0.8"/>
      </g>
     </g>
     <g id="text_12">
      <!-- 200 -->
      <g style="fill: #777777" transform="translate(27.240625 187.894069) scale(0.1 -0.1)">
       <use xlink:href="#DejaVuSans-32"/>
       <use xlink:href="#DejaVuSans-30" transform="translate(63.623047 0)"/>
       <use xlink:href="#DejaVuSans-30" transform="translate(127.246094 0)"/>
      </g>
     </g>
    </g>
    <g id="ytick_2">
     <g id="line2d_25">
      <path d="M 53.328125 145.971432 
L 611.328125 145.971432 
" clip-path="url(#p176ac04777)" style="fill: none; stroke: #404040; stroke-width: 0.8; stroke-linecap: square"/>
     </g>
     <g id="line2d_26">
      <g>
       <use xlink:href="#m081445013a" x="53.328125" y="145.971432" style="fill: #777777; stroke: #777777; stroke-width: 0.8"/>
      </g>
     </g>
     <g id="text_13">
      <!-- 400 -->
      <g style="fill: #777777" transform="translate(27.240625 149.770651) scale(0.1 -0.1)">
       <use xlink:href="#DejaVuSans-34"/>
       <use xlink:href="#DejaVuSans-30" transform="translate(63.623047 0)"/>
       <use xlink:href="#DejaVuSans-30" transform="translate(127.246094 0)"/>
      </g>
     </g>
    </g>
    <g id="ytick_3">
     <g id="line2d_27">
      <path d="M 53.328125 107.848014 
L 611.328125 107.848014 
" clip-path="url(#p176ac04777)" style="fill: none; stroke: #404040; stroke-width: 0.8; stroke-linecap: square"/>
     </g>
     <g id="line2d_28">
      <g>
       <use xlink:href="#m081445013a" x="53.328125" y="107.848014" style="fill: #777777; stroke: #777777; stroke-width: 0.8"/>
      </g>
     </g>
     <g id="text_14">
      <!-- 600 -->
      <g style="fill: #777777" transform="translate(27.240625 111.647233) scale(0.1 -0.1)">
       <use xlink:href="#DejaVuSans-36"/>
       <use xlink:href="#DejaVuSans-30" transform="translate(63.623047 0)"/>
       <use xlink:href="#DejaVuSans-30" transform="translate(127.246094 0)"/>
      </g>
     </g>
    </g>
    <g id="ytick_4">
     <g id="line2d_29">
      <path d="M 53.328125 69.724596 
L 611.328125 69.724596 
" clip-path="url(#p176ac04777)" style="fill: none; stroke: #404040; stroke-width: 0.8; stroke-linecap: square"/>
     </g>
     <g id="line2d_30">
      <g>
       <use xlink:href="#m081445013a" x="53.328125" y="69.724596" style="fill: #777777; stroke: #777777; stroke-width: 0.8"/>
      </g>
     </g>
     <g id="text_15">
      <!-- 800 -->
      <g style="fill: #777777" transform="translate(27.240625 73.523814) scale(0.1 -0.1)">
       <defs>
        <path id="DejaVuSans-38" d="M 2034 2216 
Q 1584 2216 1326 1975 
Q 1069 1734 1069 1313 
Q 1069 891 1326 650 
Q 1584 409 2034 409 
Q 2484 409 2743 651 
Q 3003 894 3003 1313 
Q 3003 1734 2745 1975 
Q 2488 2216 2034 2216 
z
M 1403 2484 
Q 997 2584 770 2862 
Q 544 3141 544 3541 
Q 544 4100 942 4425 
Q 1341 4750 2034 4750 
Q 2731 4750 3128 4425 
Q 3525 4100 3525 3541 
Q 3525 3141 3298 2862 
Q 3072 2584 2669 2484 
Q 3125 2378 3379 2068 
Q 3634 1759 3634 1313 
Q 3634 634 3220 271 
Q 2806 -91 2034 -91 
Q 1263 -91 848 271 
Q 434 634 434 1313 
Q 434 1759 690 2068 
Q 947 2378 1403 2484 
z
M 1172 3481 
Q 1172 3119 1398 2916 
Q 1625 2713 2034 2713 
Q 2441 2713 2670 2916 
Q 2900 3119 2900 3481 
Q 2900 3844 2670 4047 
Q 2441 4250 2034 4250 
Q 1625 4250 1398 4047 
Q 1172 3844 1172 3481 
z
" transform="scale(0.015625)"/>
       </defs>
       <use xlink:href="#DejaVuSans-38"/>
       <use xlink:href="#DejaVuSans-30" transform="translate(63.623047 0)"/>
       <use xlink:href="#DejaVuSans-30" transform="translate(127.246094 0)"/>
      </g>
     </g>
    </g>
    <g id="ytick_5">
     <g id="line2d_31">
      <path d="M 53.328125 31.601177 
L 611.328125 31.601177 
" clip-path="url(#p176ac04777)" style="fill: none; stroke: #404040; stroke-width: 0.8; stroke-linecap: square"/>
     </g>
     <g id="line2d_32">
      <g>
       <use xlink:href="#m081445013a" x="53.328125" y="31.601177" style="fill: #777777; stroke: #777777; stroke-width: 0.8"/>
      </g>
     </g>
     <g id="text_16">
      <!-- 1000 -->
      <g style="fill: #777777" transform="translate(20.878125 35.400396) scale(0.1 -0.1)">
       <use xlink:href="#DejaVuSans-31"/>
       <use xlink:href="#DejaVuSans-30" transform="translate(63.623047 0)"/>
       <use xlink:href="#DejaVuSans-30" transform="translate(127.246094 0)"/>
       <use xlink:href="#DejaVuSans-30" transform="translate(190.869141 0)"/>
      </g>
     </g>
    </g>
    <g id="text_17">
     <!-- Themes -->
     <g style="fill: #777777" transform="translate(14.798438 140.088906) rotate(-90) scale(0.1 -0.1)">
      <defs>
       <path id="DejaVuSans-54" d="M -19 4666 
L 3928 4666 
L 3928 4134 
L 2272 4134 
L 2272 0 
L 1638 0 
L 1638 4134 
L -19 4134 
L -19 4666 
z
" transform="scale(0.015625)"/>
       <path id="DejaVuSans-68" d="M 3513 2113 
L 3513 0 
L 2938 0 
L 2938 2094 
Q 2938 2591 2744 2837 
Q 2550 3084 2163 3084 
Q 1697 3084 1428 2787 
Q 1159 2491 1159 1978 
L 1159 0 
L 581 0 
L 581 4863 
L 1159 4863 
L 1159 2956 
Q 1366 3272 1645 3428 
Q 1925 3584 2291 3584 
Q 2894 3584 3203 3211 
Q 3513 2838 3513 2113 
z
" transform="scale(0.015625)"/>
       <path id="DejaVuSans-65" d="M 3597 1894 
L 3597 1613 
L 953 1613 
Q 991 1019 1311 708 
Q 1631 397 2203 397 
Q 2534 397 2845 478 
Q 3156 559 3463 722 
L 3463 178 
Q 3153 47 2828 -22 
Q 2503 -91 2169 -91 
Q 1331 -91 842 396 
Q 353 884 353 1716 
Q 353 2575 817 3079 
Q 1281 3584 2069 3584 
Q 2775 3584 3186 3129 
Q 3597 2675 3597 1894 
z
M 3022 2063 
Q 3016 2534 2758 2815 
Q 2500 3097 2075 3097 
Q 1594 3097 1305 2825 
Q 1016 2553 972 2059 
L 3022 2063 
z
" transform="scale(0.015625)"/>
       <path id="DejaVuSans-6d" d="M 3328 2828 
Q 3544 3216 3844 3400 
Q 4144 3584 4550 3584 
Q 5097 3584 5394 3201 
Q 5691 2819 5691 2113 
L 5691 0 
L 5113 0 
L 5113 2094 
Q 5113 2597 4934 2840 
Q 4756 3084 4391 3084 
Q 3944 3084 3684 2787 
Q 3425 2491 3425 1978 
L 3425 0 
L 2847 0 
L 2847 2094 
Q 2847 2600 2669 2842 
Q 2491 3084 2119 3084 
Q 1678 3084 1418 2786 
Q 1159 2488 1159 1978 
L 1159 0 
L 581 0 
L 581 3500 
L 1159 3500 
L 1159 2956 
Q 1356 3278 1631 3431 
Q 1906 3584 2284 3584 
Q 2666 3584 2933 3390 
Q 3200 3197 3328 2828 
z
" transform="scale(0.015625)"/>
       <path id="DejaVuSans-73" d="M 2834 3397 
L 2834 2853 
Q 2591 2978 2328 3040 
Q 2066 3103 1784 3103 
Q 1356 3103 1142 2972 
Q 928 2841 928 2578 
Q 928 2378 1081 2264 
Q 1234 2150 1697 2047 
L 1894 2003 
Q 2506 1872 2764 1633 
Q 3022 1394 3022 966 
Q 3022 478 2636 193 
Q 2250 -91 1575 -91 
Q 1294 -91 989 -36 
Q 684 19 347 128 
L 347 722 
Q 666 556 975 473 
Q 1284 391 1588 391 
Q 1994 391 2212 530 
Q 2431 669 2431 922 
Q 2431 1156 2273 1281 
Q 2116 1406 1581 1522 
L 1381 1569 
Q 847 1681 609 1914 
Q 372 2147 372 2553 
Q 372 3047 722 3315 
Q 1072 3584 1716 3584 
Q 2034 3584 2315 3537 
Q 2597 3491 2834 3397 
z
" transform="scale(0.015625)"/>
      </defs>
      <use xlink:href="#DejaVuSans-54"/>
      <use xlink:href="#DejaVuSans-68" transform="translate(61.083984 0)"/>
      <use xlink:href="#DejaVuSans-65" transform="translate(124.462891 0)"/>
      <use xlink:href="#DejaVuSans-6d" transform="translate(185.986328 0)"/>
      <use xlink:href="#DejaVuSans-65" transform="translate(283.398438 0)"/>
      <use xlink:href="#DejaVuSans-73" transform="translate(344.921875 0)"/>
     </g>
    </g>
   </g>
   <g id="line2d_33">
    <path d="M 78.691761 209.256307 
L 83.34564 208.493838 
L 90.326457 206.39705 
L 90.908192 205.634582 
L 92.071661 204.872114 
L 92.653396 204.300262 
L 93.235131 204.109645 
L 96.72554 202.775326 
L 97.307274 201.82224 
L 111.268909 200.487921 
L 113.014113 199.916069 
L 114.177583 195.150642 
L 115.922787 194.006939 
L 120.576665 189.813363 
L 121.1584 187.144724 
L 122.32187 186.572873 
L 122.903605 185.619787 
L 124.067074 184.857319 
L 126.394013 180.663743 
L 126.975748 179.901275 
L 127.557483 179.520041 
L 140.355648 178.566955 
L 145.591261 178.376338 
L 149.08167 174.94523 
L 149.663404 159.314629 
L 150.245139 157.789692 
L 150.826874 157.408458 
L 151.408609 157.027224 
L 160.13463 155.883521 
L 161.2981 150.927477 
L 161.879835 147.877603 
L 162.46157 144.446496 
L 163.043304 137.774897 
L 163.625039 135.106258 
L 165.370243 130.531448 
L 166.533713 129.76898 
L 171.769326 128.053426 
L 174.678 127.862809 
L 175.841469 122.906764 
L 176.423204 118.713188 
L 177.004939 115.282081 
L 177.586674 112.994676 
L 179.913613 110.897888 
L 183.404022 107.276163 
L 185.730961 104.798141 
L 186.312695 104.607523 
L 186.89443 104.416906 
L 188.639635 104.226289 
L 189.221369 99.270245 
L 189.803104 95.457903 
L 191.548308 90.501859 
L 192.130043 90.120625 
L 192.711778 88.023837 
L 193.875248 78.874216 
L 195.038717 77.349279 
L 195.620452 64.387317 
L 196.202187 62.481146 
L 196.783921 61.909295 
L 197.365656 61.718678 
L 197.947391 60.956209 
L 200.27433 58.096953 
L 201.4378 57.525102 
L 560.949893 55.428314 
L 566.185506 55.237697 
L 566.767241 55.04708 
L 570.25765 54.856463 
L 574.329793 53.522143 
L 574.911528 53.331526 
L 576.074997 52.950292 
L 577.238467 51.997206 
L 579.565406 51.615972 
L 583.63755 45.897459 
L 584.219284 39.607095 
L 584.801019 31.982412 
L 585.382754 31.41056 
L 585.964489 31.219943 
" clip-path="url(#p176ac04777)" style="fill: none; stroke: #1f77b4; stroke-width: 1.5; stroke-linecap: square"/>
   </g>
   <g id="patch_3">
    <path d="M 53.328125 218.158125 
L 53.328125 22.318125 
" style="fill: none; stroke: #404040; stroke-width: 0.8; stroke-linejoin: miter; stroke-linecap: square"/>
   </g>
   <g id="patch_4">
    <path d="M 611.328125 218.158125 
L 611.328125 22.318125 
" style="fill: none; stroke: #404040; stroke-width: 0.8; stroke-linejoin: miter; stroke-linecap: square"/>
   </g>
   <g id="patch_5">
    <path d="M 53.328125 218.158125 
L 611.328125 218.158125 
" style="fill: none; stroke: #404040; stroke-width: 0.8; stroke-linejoin: miter; stroke-linecap: square"/>
   </g>
   <g id="patch_6">
    <path d="M 53.328125 22.318125 
L 611.328125 22.318125 
" style="fill: none; stroke: #404040; stroke-width: 0.8; stroke-linejoin: miter; stroke-linecap: square"/>
   </g>
   <g id="text_18">
    <!-- TV Shows -->
    <g style="fill: #777777" transform="translate(303.336875 16.318125) scale(0.12 -0.12)">
     <defs>
      <path id="DejaVuSans-56" d="M 1831 0 
L 50 4666 
L 709 4666 
L 2188 738 
L 3669 4666 
L 4325 4666 
L 2547 0 
L 1831 0 
z
" transform="scale(0.015625)"/>
      <path id="DejaVuSans-20" transform="scale(0.015625)"/>
      <path id="DejaVuSans-53" d="M 3425 4513 
L 3425 3897 
Q 3066 4069 2747 4153 
Q 2428 4238 2131 4238 
Q 1616 4238 1336 4038 
Q 1056 3838 1056 3469 
Q 1056 3159 1242 3001 
Q 1428 2844 1947 2747 
L 2328 2669 
Q 3034 2534 3370 2195 
Q 3706 1856 3706 1288 
Q 3706 609 3251 259 
Q 2797 -91 1919 -91 
Q 1588 -91 1214 -16 
Q 841 59 441 206 
L 441 856 
Q 825 641 1194 531 
Q 1563 422 1919 422 
Q 2459 422 2753 634 
Q 3047 847 3047 1241 
Q 3047 1584 2836 1778 
Q 2625 1972 2144 2069 
L 1759 2144 
Q 1053 2284 737 2584 
Q 422 2884 422 3419 
Q 422 4038 858 4394 
Q 1294 4750 2059 4750 
Q 2388 4750 2728 4690 
Q 3069 4631 3425 4513 
z
" transform="scale(0.015625)"/>
      <path id="DejaVuSans-6f" d="M 1959 3097 
Q 1497 3097 1228 2736 
Q 959 2375 959 1747 
Q 959 1119 1226 758 
Q 1494 397 1959 397 
Q 2419 397 2687 759 
Q 2956 1122 2956 1747 
Q 2956 2369 2687 2733 
Q 2419 3097 1959 3097 
z
M 1959 3584 
Q 2709 3584 3137 3096 
Q 3566 2609 3566 1747 
Q 3566 888 3137 398 
Q 2709 -91 1959 -91 
Q 1206 -91 779 398 
Q 353 888 353 1747 
Q 353 2609 779 3096 
Q 1206 3584 1959 3584 
z
" transform="scale(0.015625)"/>
      <path id="DejaVuSans-77" d="M 269 3500 
L 844 3500 
L 1563 769 
L 2278 3500 
L 2956 3500 
L 3675 769 
L 4391 3500 
L 4966 3500 
L 4050 0 
L 3372 0 
L 2619 2869 
L 1863 0 
L 1184 0 
L 269 3500 
z
" transform="scale(0.015625)"/>
     </defs>
     <use xlink:href="#DejaVuSans-54"/>
     <use xlink:href="#DejaVuSans-56" transform="translate(61.083984 0)"/>
     <use xlink:href="#DejaVuSans-20" transform="translate(129.492188 0)"/>
     <use xlink:href="#DejaVuSans-53" transform="translate(161.279297 0)"/>
     <use xlink:href="#DejaVuSans-68" transform="translate(224.755859 0)"/>
     <use xlink:href="#DejaVuSans-6f" transform="translate(288.134766 0)"/>
     <use xlink:href="#DejaVuSans-77" transform="translate(349.316406 0)"/>
     <use xlink:href="#DejaVuSans-73" transform="translate(431.103516 0)"/>
    </g>
   </g>
  </g>
 </g>
 <defs>
  <clipPath id="p176ac04777">
   <rect x="53.328125" y="22.318125" width="558" height="195.84"/>
  </clipPath>
 </defs>
</svg>
