<svg class="main-svg" xmlns="http://www.w3.org/2000/svg" xmlns:xlink="http://www.w3.org/1999/xlink" width="700" height="500" style="" viewBox="0 0 700 500"><rect x="0" y="0" width="700" height="500" style="fill: rgb(0, 0, 0); fill-opacity: 0;"/><defs id="defs-bdd5f6"><g class="clips"><clipPath id="clipbdd5f6xyplot" class="plotclip"><rect width="620" height="420"/></clipPath><clipPath class="axesclip" id="clipbdd5f6x"><rect x="60" y="0" width="620" height="500"/></clipPath><clipPath class="axesclip" id="clipbdd5f6y"><rect x="0" y="40" width="700" height="420"/></clipPath><clipPath class="axesclip" id="clipbdd5f6xy"><rect x="60" y="40" width="620" height="420"/></clipPath></g><g class="gradients"/></defs><g class="bglayer"><rect class="bg" x="60" y="40" width="620" height="420" style="fill: rgb(0, 0, 0); fill-opacity: 0; stroke-width: 0;"/></g><g class="layer-below"><g class="imagelayer"/><g class="shapelayer"/></g><g class="cartesianlayer"><g class="subplot xy"><g class="layer-subplot"><g class="shapelayer"/><g class="imagelayer"/></g><g class="gridlayer"><g class="x"><path class="xgrid crisp" transform="translate(79.53,0)" d="M0,40v420" style="stroke: rgb(64, 64, 64); stroke-opacity: 1; stroke-width: 1px;"/><path class="xgrid crisp" transform="translate(147.87,0)" d="M0,40v420" style="stroke: rgb(64, 64, 64); stroke-opacity: 1; stroke-width: 1px;"/><path class="xgrid crisp" transform="translate(216.22,0)" d="M0,40v420" style="stroke: rgb(64, 64, 64); stroke-opacity: 1; stroke-width: 1px;"/><path class="xgrid crisp" transform="translate(284.57,0)" d="M0,40v420" style="stroke: rgb(64, 64, 64); stroke-opacity: 1; stroke-width: 1px;"/><path class="xgrid crisp" transform="translate(352.91,0)" d="M0,40v420" style="stroke: rgb(64, 64, 64); stroke-opacity: 1; stroke-width: 1px;"/><path class="xgrid crisp" transform="translate(421.26,0)" d="M0,40v420" style="stroke: rgb(64, 64, 64); stroke-opacity: 1; stroke-width: 1px;"/><path class="xgrid crisp" transform="translate(489.61,0)" d="M0,40v420" style="stroke: rgb(64, 64, 64); stroke-opacity: 1; stroke-width: 1px;"/><path class="xgrid crisp" transform="translate(557.95,0)" d="M0,40v420" style="stroke: rgb(64, 64, 64); stroke-opacity: 1; stroke-width: 1px;"/><path class="xgrid crisp" transform="translate(626.3,0)" d="M0,40v420" style="stroke: rgb(64, 64, 64); stroke-opacity: 1; stroke-width: 1px;"/></g><g class="y"><path class="ygrid crisp" transform="translate(0,394.85)" d="M60,0h620" style="stroke: rgb(64, 64, 64); stroke-opacity: 1; stroke-width: 1px;"/><path class="ygrid crisp" transform="translate(0,325.88)" d="M60,0h620" style="stroke: rgb(64, 64, 64); stroke-opacity: 1; stroke-width: 1px;"/><path class="ygrid crisp" transform="translate(0,256.9)" d="M60,0h620" style="stroke: rgb(64, 64, 64); stroke-opacity: 1; stroke-width: 1px;"/><path class="ygrid crisp" transform="translate(0,187.92)" d="M60,0h620" style="stroke: rgb(64, 64, 64); stroke-opacity: 1; stroke-width: 1px;"/><path class="ygrid crisp" transform="translate(0,118.94)" d="M60,0h620" style="stroke: rgb(64, 64, 64); stroke-opacity: 1; stroke-width: 1px;"/><path class="ygrid crisp" transform="translate(0,49.96)" d="M60,0h620" style="stroke: rgb(64, 64, 64); stroke-opacity: 1; stroke-width: 1px;"/></g></g><g class="zerolinelayer"/><path class="xlines-below crisp" d="M0,0" style="fill: none;"/><path class="ylines-below crisp" d="M0,0" style="fill: none;"/><g class="overlines-below"/><g class="xaxislayer-below"><g class="xtick"><text text-anchor="middle" x="0" y="473" transform="translate(79.53,0)" style="font-family: 'Open Sans'; font-size: 12px; fill: rgb(119, 119, 119); fill-opacity: 1; white-space: pre;"><tspan class="line" dy="0em" x="0" y="473">Jan 14</tspan><tspan class="line" dy="1.3em" x="0" y="473">2024</tspan></text></g><g class="xtick"><text text-anchor="middle" x="0" y="473" transform="translate(147.87,0)" style="font-family: 'Open Sans'; font-size: 12px; fill: rgb(119, 119, 119); fill-opacity: 1; white-space: pre;">Jan 28</text></g><g class="xtick"><text text-anchor="middle" x="0" y="473" transform="translate(216.22,0)" style="font-family: 'Open Sans'; font-size: 12px; fill: rgb(119, 119, 119); fill-opacity: 1; white-space: pre;">Feb 11</text></g><g class="xtick"><text text-anchor="middle" x="0" y="473" transform="translate(284.57,0)" style="font-family: 'Open Sans'; font-size: 12px; fill: rgb(119, 119, 119); fill-opacity: 1; white-space: pre;">Feb 25</text></g><g class="xtick"><text text-anchor="middle" x="0" y="473" transform="translate(352.91,0)" style="font-family: 'Open Sans'; font-size: 12px; fill: rgb(119, 119, 119); fill-opacity: 1; white-space: pre;">Mar 10</text></g><g class="xtick"><text text-anchor="middle" x="0" y="473" transform="translate(421.26,0)" style="font-family: 'Open Sans'; font-size: 12px; fill: rgb(119, 119, 119); fill-opacity: 1; white-space: pre;">Mar 24</text></g><g class="xtick"><text text-anchor="middle" x="0" y="473" transform="translate(489.61,0)" style="font-family: 'Open Sans'; font-size: 12px; fill: rgb(119, 119, 119); fill-opacity: 1; white-space: pre;">Apr 7</text></g><g class="xtick"><text text-anchor="middle" x="0" y="473" transform="translate(557.95,0)" style="font-family: 'Open Sans'; font-size: 12px; fill: rgb(119, 119, 119); fill-opacity: 1; white-space: pre;">Apr 21</text></g><g class="xtick"><text text-anchor="middle" x="0" y="473" transform="translate(626.3,0)" style="font-family: 'Open Sans'; font-size: 12px; fill: rgb(119, 119, 119); fill-opacity: 1; white-space: pre;">May 5</text></g></g><g class="yaxislayer-below"><g class="ytick"><text text-anchor="end" x="59" y="4.199999999999999" transform="translate(0,394.85)" style="font-family: 'Open Sans'; font-size: 12px; fill: rgb(119, 119, 119); fill-opacity: 1; white-space: pre;">100</text></g><g class="ytick"><text text-anchor="end" x="59" y="4.199999999999999" transform="translate(0,325.88)" style="font-family: 'Open Sans'; font-size: 12px; fill: rgb(119, 119, 119); fill-opacity: 1; white-space: pre;">150</text></g><g class="ytick"><text text-anchor="end" x="59" y="4.199999999999999" transform="translate(0,256.9)" style="font-family: 'Open Sans'; font-size: 12px; fill: rgb(119, 119, 119); fill-opacity: 1; white-space: pre;">200</text></g><g class="ytick"><text text-anchor="end" x="59" y="4.199999999999999" transform="translate(0,187.92)" style="font-family: 'Open Sans'; font-size: 12px; fill: rgb(119, 119, 119); fill-opacity: 1; white-space: pre;">250</text></g><g class="ytick"><text text-anchor="end" x="59" y="4.199999999999999" transform="translate(0,118.94)" style="font-family: 'Open Sans'; font-size: 12px; fill: rgb(119, 119, 119); fill-opacity: 1; white-space: pre;">300</text></g><g class="ytick"><text text-anchor="end" x="59" y="4.199999999999999" transform="translate(0,49.96)" style="font-family: 'Open Sans'; font-size: 12px; fill: rgb(119, 119, 119); fill-opacity: 1; white-space: pre;">350</text></g></g><g class="overaxes-below"/><g class="plot" transform="translate(60,40)" clip-path="url('#clipbdd5f6xyplot')"><g class="scatterlayer mlayer"><g class="trace scatter trace0cc5c5" style="stroke-miterlimit: 2; opacity: 1;"><g class="fills"/><g class="errorbars"/><g class="lines"><path class="js-line" d="M0,399L39.06,393.48L97.64,378.31L102.52,372.79L112.28,367.27L117.17,363.13L122.05,361.75L151.34,352.09L156.22,345.2L273.39,335.54L288.03,331.4L297.8,296.91L312.44,288.64L351.5,258.28L356.38,238.97L366.14,234.83L371.02,227.93L380.79,222.42L400.31,192.07L405.2,186.55L410.08,183.79L517.48,176.89L561.42,175.51L590.71,150.68L595.59,37.55L600.47,26.52L605.35,23.76L610.24,21L620,21" style="vector-effect: non-scaling-stroke; fill: none; stroke: rgb(31, 119, 180); stroke-opacity: 1; stroke-width: 2px; opacity: 1;"/></g><g class="points"/><g class="text"/></g></g></g><g class="overplot"/><path class="xlines-above"/><path class="ylines-above"/><g class="overlines-above"/><g class="xaxislayer-above"/><g class="yaxislayer-above"/><g class="overaxes-above"/></g></g><g class="polarlayer"/><g class="ternarylayer"/><g class="geolayer"/><g class="funnelarealayer"/><g class="pielayer"/><g class="treemaplayer"/><g class="sunburstlayer"/><g class="glimages"/><defs id="topdefs-bdd5f6"><g class="clips"/></defs><g class="layer-above"><g class="imagelayer"/><g class="shapelayer"/></g><g class="infolayer"><g class="g-gtitle"><text class="gtitle" x="350" y="20" text-anchor="middle" dy="0em" style="font-family: 'Open Sans'; font-size: 17px; fill: rgb(119, 119, 119); opacity: 1; font-weight: normal; white-space: pre;">TV Shows</text></g><g class="g-xtitle"/><g class="g-ytitle"><text class="ytitle" transform="rotate(-90,20.700000000000003,250)" x="20.700000000000003" y="250" text-anchor="middle" style="font-family: 'Open Sans'; font-size: 14px; fill: rgb(119, 119, 119); opacity: 1; font-weight: normal; white-space: pre;">Themes</text></g></g></svg>