<?xml version="1.0" encoding="utf-8" standalone="no"?>
<!DOCTYPE svg PUBLIC "-//W3C//DTD SVG 1.1//EN"
  "http://www.w3.org/Graphics/SVG/1.1/DTD/svg11.dtd">
<svg xmlns:xlink="http://www.w3.org/1999/xlink" width="606.125781pt" height="270.075254pt" viewBox="0 0 606.125781 270.075254" xmlns="http://www.w3.org/2000/svg" version="1.1">
 <metadata>
  <rdf:RDF xmlns:dc="http://purl.org/dc/elements/1.1/" xmlns:cc="http://creativecommons.org/ns#" xmlns:rdf="http://www.w3.org/1999/02/22-rdf-syntax-ns#">
   <cc:Work>
    <dc:type rdf:resource="http://purl.org/dc/dcmitype/StillImage"/>
    <dc:date>2026-07-26T18:17:16.360350</dc:date>
    <dc:format>image/svg+xml</dc:format>
    <dc:creator>
     <cc:Agent>
      <dc:title>Matplotlib v3.11.1, https://matplotlib.org/</dc:title>
     </cc:Agent>
    </dc:creator>
   </cc:Work>
  </rdf:RDF>
 </metadata>
 <defs>
  <style type="text/css">*{stroke-linejoin: round; stroke-linecap: butt}</style>
 </defs>
 <g id="figure_1">
  <g id="patch_1">
   <path d="M 0 270.075254 
L 606.125781 270.075254 
L 606.125781 0 
L 0 0 
L 0 270.075254 
z
" style="fill: none; opacity: 0"/>
  </g>
  <g id="axes_1">
   <g id="patch_2">
    <path d="M 40.925781 218.157187 
L 598.925781 218.157187 
L 598.925781 22.317187 
L 40.925781 22.317187 
L 40.925781 218.157187 
z
" style="fill: none; opacity: 0"/>
   </g>
   <g id="matplotlib.axis_1">
    <g id="xtick_1">
     <g id="line2d_1">
      <path d="M 105.476326 218.157187 
L 105.476326 22.317187 
" clip-path="url(#p2c293ab0aa)" style="fill: none; stroke: #404040; stroke-width: 0.8; stroke-linecap: square"/>
     </g>
     <g id="line2d_2">
      <defs>
       <path id="m82ed035e74" d="M 0 0 
L 0 3.5 
" style="stroke: #777777; stroke-width: 0.8"/>
      </defs>
      <g>
       <use xlink:href="#m82ed035e74" x="105.476326" y="218.157187" style="fill: #777777; stroke: #777777; stroke-width: 0.8"/>
      </g>
     </g>
     <g id="text_1">
      <!-- 2023-01-01 -->
      <g style="fill: #777777" transform="translate(53.945546 260.794763) rotate(-30) scale(0.1 -0.1)">
       <defs>
        <path id="DejaVuSans-15" d="M 1228 531 
L 3431 531 
L 3431 0 
L 469 0 
L 469 531 
Q 828 903 1448 1529 
Q 2069 2156 2228 2338 
Q 2531 2678 2651 2914 
Q 2772 3150 2772 3378 
Q 2772 3750 2511 3984 
Q 2250 4219 1831 4219 
Q 1534 4219 1204 4116 
Q 875 4013 500 3803 
L 500 4441 
Q 881 4594 1212 4672 
Q 1544 4750 1819 4750 
Q 2544 4750 2975 4387 
Q 3406 4025 3406 3419 
Q 3406 3131 3298 2873 
Q 3191 2616 2906 2266 
Q 2828 2175 2409 1742 
Q 1991 1309 1228 531 
z
" transform="scale(0.015625)"/>
        <path id="DejaVuSans-13" d="M 2034 4250 
Q 1547 4250 1301 3770 
Q 1056 3291 1056 2328 
Q 1056 1369 1301 889 
Q 1547 409 2034 409 
Q 2525 409 2770 889 
Q 3016 1369 3016 2328 
Q 3016 3291 2770 3770 
Q 2525 4250 2034 4250 
z
M 2034 4750 
Q 2819 4750 3233 4129 
Q 3647 3509 3647 2328 
Q 3647 1150 3233 529 
Q 2819 -91 2034 -91 
Q 1250 -91 836 529 
Q 422 1150 422 2328 
Q 422 3509 836 4129 
Q 1250 4750 2034 4750 
z
" transform="scale(0.015625)"/>
        <path id="DejaVuSans-16" d="M 2597 2516 
Q 3050 2419 3304 2112 
Q 3559 1806 3559 1356 
Q 3559 666 3084 287 
Q 2609 -91 1734 -91 
Q 1441 -91 1130 -33 
Q 819 25 488 141 
L 488 750 
Q 750 597 1062 519 
Q 1375 441 1716 441 
Q 2309 441 2620 675 
Q 2931 909 2931 1356 
Q 2931 1769 2642 2001 
Q 2353 2234 1838 2234 
L 1294 2234 
L 1294 2753 
L 1863 2753 
Q 2328 2753 2575 2939 
Q 2822 3125 2822 3475 
Q 2822 3834 2567 4026 
Q 2313 4219 1838 4219 
Q 1578 4219 1281 4162 
Q 984 4106 628 3988 
L 628 4550 
Q 988 4650 1302 4700 
Q 1616 4750 1894 4750 
Q 2613 4750 3031 4423 
Q 3450 4097 3450 3541 
Q 3450 3153 3228 2886 
Q 3006 2619 2597 2516 
z
" transform="scale(0.015625)"/>
        <path id="DejaVuSans-10" d="M 313 2009 
L 1997 2009 
L 1997 1497 
L 313 1497 
L 313 2009 
z
" transform="scale(0.015625)"/>
        <path id="DejaVuSans-14" d="M 794 531 
L 1825 531 
L 1825 4091 
L 703 3866 
L 703 4441 
L 1819 4666 
L 2450 4666 
L 2450 531 
L 3481 531 
L 3481 0 
L 794 0 
L 794 531 
z
" transform="scale(0.015625)"/>
       </defs>
       <use xlink:href="#DejaVuSans-15"/>
       <use xlink:href="#DejaVuSans-13" transform="translate(63.625 0)"/>
       <use xlink:href="#DejaVuSans-15" transform="translate(127.25 0)"/>
       <use xlink:href="#DejaVuSans-16" transform="translate(190.875 0)"/>
       <use xlink:href="#DejaVuSans-10" transform="translate(254.5 0)"/>
       <use xlink:href="#DejaVuSans-13" transform="translate(290.578125 0)"/>
       <use xlink:href="#DejaVuSans-14" transform="translate(354.203125 0)"/>
       <use xlink:href="#DejaVuSans-10" transform="translate(417.828125 0)"/>
       <use xlink:href="#DejaVuSans-13" transform="translate(453.90625 0)"/>
       <use xlink:href="#DejaVuSans-14" transform="translate(517.53125 0)"/>
      </g>
     </g>
    </g>
    <g id="xtick_2">
     <g id="line2d_3">
      <path d="M 170.548164 218.157187 
L 170.548164 22.317187 
" clip-path="url(#p2c293ab0aa)" style="fill: none; stroke: #404040; stroke-width: 0.8; stroke-linecap: square"/>
     </g>
     <g id="line2d_4">
      <g>
       <use xlink:href="#m82ed035e74" x="170.548164" y="218.157187" style="fill: #777777; stroke: #777777; stroke-width: 0.8"/>
      </g>
     </g>
     <g id="text_2">
      <!-- 2023-07-01 -->
      <g style="fill: #777777" transform="translate(119.017384 260.794763) rotate(-30) scale(0.1 -0.1)">
       <defs>
        <path id="DejaVuSans-1a" d="M 525 4666 
L 3525 4666 
L 3525 4397 
L 1831 0 
L 1172 0 
L 2766 4134 
L 525 4134 
L 525 4666 
z
" transform="scale(0.015625)"/>
       </defs>
       <use xlink:href="#DejaVuSans-15"/>
       <use xlink:href="#DejaVuSans-13" transform="translate(63.625 0)"/>
       <use xlink:href="#DejaVuSans-15" transform="translate(127.25 0)"/>
       <use xlink:href="#DejaVuSans-16" transform="translate(190.875 0)"/>
       <use xlink:href="#DejaVuSans-10" transform="translate(254.5 0)"/>
       <use xlink:href="#DejaVuSans-13" transform="translate(290.578125 0)"/>
       <use xlink:href="#DejaVuSans-1a" transform="translate(354.203125 0)"/>
       <use xlink:href="#DejaVuSans-10" transform="translate(417.828125 0)"/>
       <use xlink:href="#DejaVuSans-13" transform="translate(453.90625 0)"/>
       <use xlink:href="#DejaVuSans-14" transform="translate(517.53125 0)"/>
      </g>
     </g>
    </g>
    <g id="xtick_3">
     <g id="line2d_5">
      <path d="M 236.698541 218.157187 
L 236.698541 22.317187 
" clip-path="url(#p2c293ab0aa)" style="fill: none; stroke: #404040; stroke-width: 0.8; stroke-linecap: square"/>
     </g>
     <g id="line2d_6">
      <g>
       <use xlink:href="#m82ed035e74" x="236.698541" y="218.157187" style="fill: #777777; stroke: #777777; stroke-width: 0.8"/>
      </g>
     </g>
     <g id="text_3">
      <!-- 2024-01-01 -->
      <g style="fill: #777777" transform="translate(185.167761 260.794763) rotate(-30) scale(0.1 -0.1)">
       <defs>
        <path id="DejaVuSans-17" d="M 2419 4116 
L 825 1625 
L 2419 1625 
L 2419 4116 
z
M 2253 4666 
L 3047 4666 
L 3047 1625 
L 3713 1625 
L 3713 1100 
L 3047 1100 
L 3047 0 
L 2419 0 
L 2419 1100 
L 313 1100 
L 313 1709 
L 2253 4666 
z
" transform="scale(0.015625)"/>
       </defs>
       <use xlink:href="#DejaVuSans-15"/>
       <use xlink:href="#DejaVuSans-13" transform="translate(63.625 0)"/>
       <use xlink:href="#DejaVuSans-15" transform="translate(127.25 0)"/>
       <use xlink:href="#DejaVuSans-17" transform="translate(190.875 0)"/>
       <use xlink:href="#DejaVuSans-10" transform="translate(254.5 0)"/>
       <use xlink:href="#DejaVuSans-13" transform="translate(290.578125 0)"/>
       <use xlink:href="#DejaVuSans-14" transform="translate(354.203125 0)"/>
       <use xlink:href="#DejaVuSans-10" transform="translate(417.828125 0)"/>
       <use xlink:href="#DejaVuSans-13" transform="translate(453.90625 0)"/>
       <use xlink:href="#DejaVuSans-14" transform="translate(517.53125 0)"/>
      </g>
     </g>
    </g>
    <g id="xtick_4">
     <g id="line2d_7">
      <path d="M 302.129892 218.157187 
L 302.129892 22.317187 
" clip-path="url(#p2c293ab0aa)" style="fill: none; stroke: #404040; stroke-width: 0.8; stroke-linecap: square"/>
     </g>
     <g id="line2d_8">
      <g>
       <use xlink:href="#m82ed035e74" x="302.129892" y="218.157187" style="fill: #777777; stroke: #777777; stroke-width: 0.8"/>
      </g>
     </g>
     <g id="text_4">
      <!-- 2024-07-01 -->
      <g style="fill: #777777" transform="translate(250.599112 260.794763) rotate(-30) scale(0.1 -0.1)">
       <use xlink:href="#DejaVuSans-15"/>
       <use xlink:href="#DejaVuSans-13" transform="translate(63.625 0)"/>
       <use xlink:href="#DejaVuSans-15" transform="translate(127.25 0)"/>
       <use xlink:href="#DejaVuSans-17" transform="translate(190.875 0)"/>
       <use xlink:href="#DejaVuSans-10" transform="translate(254.5 0)"/>
       <use xlink:href="#DejaVuSans-13" transform="translate(290.578125 0)"/>
       <use xlink:href="#DejaVuSans-1a" transform="translate(354.203125 0)"/>
       <use xlink:href="#DejaVuSans-10" transform="translate(417.828125 0)"/>
       <use xlink:href="#DejaVuSans-13" transform="translate(453.90625 0)"/>
       <use xlink:href="#DejaVuSans-14" transform="translate(517.53125 0)"/>
      </g>
     </g>
    </g>
    <g id="xtick_5">
     <g id="line2d_9">
      <path d="M 368.280269 218.157187 
L 368.280269 22.317187 
" clip-path="url(#p2c293ab0aa)" style="fill: none; stroke: #404040; stroke-width: 0.8; stroke-linecap: square"/>
     </g>
     <g id="line2d_10">
      <g>
       <use xlink:href="#m82ed035e74" x="368.280269" y="218.157187" style="fill: #777777; stroke: #777777; stroke-width: 0.8"/>
      </g>
     </g>
     <g id="text_5">
      <!-- 2025-01-01 -->
      <g style="fill: #777777" transform="translate(316.749489 260.794763) rotate(-30) scale(0.1 -0.1)">
       <defs>
        <path id="DejaVuSans-18" d="M 691 4666 
L 3169 4666 
L 3169 4134 
L 1269 4134 
L 1269 2991 
Q 1406 3038 1543 3061 
Q 1681 3084 1819 3084 
Q 2600 3084 3056 2656 
Q 3513 2228 3513 1497 
Q 3513 744 3044 326 
Q 2575 -91 1722 -91 
Q 1428 -91 1123 -41 
Q 819 9 494 109 
L 494 744 
Q 775 591 1075 516 
Q 1375 441 1709 441 
Q 2250 441 2565 725 
Q 2881 1009 2881 1497 
Q 2881 1984 2565 2268 
Q 2250 2553 1709 2553 
Q 1456 2553 1204 2497 
Q 953 2441 691 2322 
L 691 4666 
z
" transform="scale(0.015625)"/>
       </defs>
       <use xlink:href="#DejaVuSans-15"/>
       <use xlink:href="#DejaVuSans-13" transform="translate(63.625 0)"/>
       <use xlink:href="#DejaVuSans-15" transform="translate(127.25 0)"/>
       <use xlink:href="#DejaVuSans-18" transform="translate(190.875 0)"/>
       <use xlink:href="#DejaVuSans-10" transform="translate(254.5 0)"/>
       <use xlink:href="#DejaVuSans-13" transform="translate(290.578125 0)"/>
       <use xlink:href="#DejaVuSans-14" transform="translate(354.203125 0)"/>
       <use xlink:href="#DejaVuSans-10" transform="translate(417.828125 0)"/>
       <use xlink:href="#DejaVuSans-13" transform="translate(453.90625 0)"/>
       <use xlink:href="#DejaVuSans-14" transform="translate(517.53125 0)"/>
      </g>
     </g>
    </g>
    <g id="xtick_6">
     <g id="line2d_11">
      <path d="M 433.352107 218.157187 
L 433.352107 22.317187 
" clip-path="url(#p2c293ab0aa)" style="fill: none; stroke: #404040; stroke-width: 0.8; stroke-linecap: square"/>
     </g>
     <g id="line2d_12">
      <g>
       <use xlink:href="#m82ed035e74" x="433.352107" y="218.157187" style="fill: #777777; stroke: #777777; stroke-width: 0.8"/>
      </g>
     </g>
     <g id="text_6">
      <!-- 2025-07-01 -->
      <g style="fill: #777777" transform="translate(381.821327 260.794763) rotate(-30) scale(0.1 -0.1)">
       <use xlink:href="#DejaVuSans-15"/>
       <use xlink:href="#DejaVuSans-13" transform="translate(63.625 0)"/>
       <use xlink:href="#DejaVuSans-15" transform="translate(127.25 0)"/>
       <use xlink:href="#DejaVuSans-18" transform="translate(190.875 0)"/>
       <use xlink:href="#DejaVuSans-10" transform="translate(254.5 0)"/>
       <use xlink:href="#DejaVuSans-13" transform="translate(290.578125 0)"/>
       <use xlink:href="#DejaVuSans-1a" transform="translate(354.203125 0)"/>
       <use xlink:href="#DejaVuSans-10" transform="translate(417.828125 0)"/>
       <use xlink:href="#DejaVuSans-13" transform="translate(453.90625 0)"/>
       <use xlink:href="#DejaVuSans-14" transform="translate(517.53125 0)"/>
      </g>
     </g>
    </g>
    <g id="xtick_7">
     <g id="line2d_13">
      <path d="M 499.502484 218.157187 
L 499.502484 22.317187 
" clip-path="url(#p2c293ab0aa)" style="fill: none; stroke: #404040; stroke-width: 0.8; stroke-linecap: square"/>
     </g>
     <g id="line2d_14">
      <g>
       <use xlink:href="#m82ed035e74" x="499.502484" y="218.157187" style="fill: #777777; stroke: #777777; stroke-width: 0.8"/>
      </g>
     </g>
     <g id="text_7">
      <!-- 2026-01-01 -->
      <g style="fill: #777777" transform="translate(447.971704 260.794763) rotate(-30) scale(0.1 -0.1)">
       <defs>
        <path id="DejaVuSans-19" d="M 2113 2584 
Q 1688 2584 1439 2293 
Q 1191 2003 1191 1497 
Q 1191 994 1439 701 
Q 1688 409 2113 409 
Q 2538 409 2786 701 
Q 3034 994 3034 1497 
Q 3034 2003 2786 2293 
Q 2538 2584 2113 2584 
z
M 3366 4563 
L 3366 3988 
Q 3128 4100 2886 4159 
Q 2644 4219 2406 4219 
Q 1781 4219 1451 3797 
Q 1122 3375 1075 2522 
Q 1259 2794 1537 2939 
Q 1816 3084 2150 3084 
Q 2853 3084 3261 2657 
Q 3669 2231 3669 1497 
Q 3669 778 3244 343 
Q 2819 -91 2113 -91 
Q 1303 -91 875 529 
Q 447 1150 447 2328 
Q 447 3434 972 4092 
Q 1497 4750 2381 4750 
Q 2619 4750 2861 4703 
Q 3103 4656 3366 4563 
z
" transform="scale(0.015625)"/>
       </defs>
       <use xlink:href="#DejaVuSans-15"/>
       <use xlink:href="#DejaVuSans-13" transform="translate(63.625 0)"/>
       <use xlink:href="#DejaVuSans-15" transform="translate(127.25 0)"/>
       <use xlink:href="#DejaVuSans-19" transform="translate(190.875 0)"/>
       <use xlink:href="#DejaVuSans-10" transform="translate(254.5 0)"/>
       <use xlink:href="#DejaVuSans-13" transform="translate(290.578125 0)"/>
       <use xlink:href="#DejaVuSans-14" transform="translate(354.203125 0)"/>
       <use xlink:href="#DejaVuSans-10" transform="translate(417.828125 0)"/>
       <use xlink:href="#DejaVuSans-13" transform="translate(453.90625 0)"/>
       <use xlink:href="#DejaVuSans-14" transform="translate(517.53125 0)"/>
      </g>
     </g>
    </g>
    <g id="xtick_8">
     <g id="line2d_15">
      <path d="M 564.574322 218.157187 
L 564.574322 22.317187 
" clip-path="url(#p2c293ab0aa)" style="fill: none; stroke: #404040; stroke-width: 0.8; stroke-linecap: square"/>
     </g>
     <g id="line2d_16">
      <g>
       <use xlink:href="#m82ed035e74" x="564.574322" y="218.157187" style="fill: #777777; stroke: #777777; stroke-width: 0.8"/>
      </g>
     </g>
     <g id="text_8">
      <!-- 2026-07-01 -->
      <g style="fill: #777777" transform="translate(513.043542 260.794763) rotate(-30) scale(0.1 -0.1)">
       <use xlink:href="#DejaVuSans-15"/>
       <use xlink:href="#DejaVuSans-13" transform="translate(63.625 0)"/>
       <use xlink:href="#DejaVuSans-15" transform="translate(127.25 0)"/>
       <use xlink:href="#DejaVuSans-19" transform="translate(190.875 0)"/>
       <use xlink:href="#DejaVuSans-10" transform="translate(254.5 0)"/>
       <use xlink:href="#DejaVuSans-13" transform="translate(290.578125 0)"/>
       <use xlink:href="#DejaVuSans-1a" transform="translate(354.203125 0)"/>
       <use xlink:href="#DejaVuSans-10" transform="translate(417.828125 0)"/>
       <use xlink:href="#DejaVuSans-13" transform="translate(453.90625 0)"/>
       <use xlink:href="#DejaVuSans-14" transform="translate(517.53125 0)"/>
      </g>
     </g>
    </g>
   </g>
   <g id="matplotlib.axis_2">
    <g id="ytick_1">
     <g id="line2d_17">
      <path d="M 40.925781 194.419006 
L 598.925781 194.419006 
" clip-path="url(#p2c293ab0aa)" style="fill: none; stroke: #404040; stroke-width: 0.8; stroke-linecap: square"/>
     </g>
     <g id="line2d_18">
      <defs>
       <path id="m797ef873bd" d="M 0 0 
L -3.5 0 
" style="stroke: #777777; stroke-width: 0.8"/>
      </defs>
      <g>
       <use xlink:href="#m797ef873bd" x="40.925781" y="194.419006" style="fill: #777777; stroke: #777777; stroke-width: 0.8"/>
      </g>
     </g>
     <g id="text_9">
      <!-- 2 -->
      <g style="fill: #777777" transform="translate(27.563281 198.217834) scale(0.1 -0.1)">
       <use xlink:href="#DejaVuSans-15"/>
      </g>
     </g>
    </g>
    <g id="ytick_2">
     <g id="line2d_19">
      <path d="M 40.925781 164.746278 
L 598.925781 164.746278 
" clip-path="url(#p2c293ab0aa)" style="fill: none; stroke: #404040; stroke-width: 0.8; stroke-linecap: square"/>
     </g>
     <g id="line2d_20">
      <g>
       <use xlink:href="#m797ef873bd" x="40.925781" y="164.746278" style="fill: #777777; stroke: #777777; stroke-width: 0.8"/>
      </g>
     </g>
     <g id="text_10">
      <!-- 4 -->
      <g style="fill: #777777" transform="translate(27.563281 168.545107) scale(0.1 -0.1)">
       <use xlink:href="#DejaVuSans-17"/>
      </g>
     </g>
    </g>
    <g id="ytick_3">
     <g id="line2d_21">
      <path d="M 40.925781 135.073551 
L 598.925781 135.073551 
" clip-path="url(#p2c293ab0aa)" style="fill: none; stroke: #404040; stroke-width: 0.8; stroke-linecap: square"/>
     </g>
     <g id="line2d_22">
      <g>
       <use xlink:href="#m797ef873bd" x="40.925781" y="135.073551" style="fill: #777777; stroke: #777777; stroke-width: 0.8"/>
      </g>
     </g>
     <g id="text_11">
      <!-- 6 -->
      <g style="fill: #777777" transform="translate(27.563281 138.872379) scale(0.1 -0.1)">
       <use xlink:href="#DejaVuSans-19"/>
      </g>
     </g>
    </g>
    <g id="ytick_4">
     <g id="line2d_23">
      <path d="M 40.925781 105.400824 
L 598.925781 105.400824 
" clip-path="url(#p2c293ab0aa)" style="fill: none; stroke: #404040; stroke-width: 0.8; stroke-linecap: square"/>
     </g>
     <g id="line2d_24">
      <g>
       <use xlink:href="#m797ef873bd" x="40.925781" y="105.400824" style="fill: #777777; stroke: #777777; stroke-width: 0.8"/>
      </g>
     </g>
     <g id="text_12">
      <!-- 8 -->
      <g style="fill: #777777" transform="translate(27.563281 109.199652) scale(0.1 -0.1)">
       <defs>
        <path id="DejaVuSans-1b" d="M 2034 2216 
Q 1584 2216 1326 1975 
Q 1069 1734 1069 1313 
Q 1069 891 1326 650 
Q 1584 409 2034 409 
Q 2484 409 2743 651 
Q 3003 894 3003 1313 
Q 3003 1734 2745 1975 
Q 2488 2216 2034 2216 
z
M 1403 2484 
Q 997 2584 770 2862 
Q 544 3141 544 3541 
Q 544 4100 942 4425 
Q 1341 4750 2034 4750 
Q 2731 4750 3128 4425 
Q 3525 4100 3525 3541 
Q 3525 3141 3298 2862 
Q 3072 2584 2669 2484 
Q 3125 2378 3379 2068 
Q 3634 1759 3634 1313 
Q 3634 634 3220 271 
Q 2806 -91 2034 -91 
Q 1263 -91 848 271 
Q 434 634 434 1313 
Q 434 1759 690 2068 
Q 947 2378 1403 2484 
z
M 1172 3481 
Q 1172 3119 1398 2916 
Q 1625 2713 2034 2713 
Q 2441 2713 2670 2916 
Q 2900 3119 2900 3481 
Q 2900 3844 2670 4047 
Q 2441 4250 2034 4250 
Q 1625 4250 1398 4047 
Q 1172 3844 1172 3481 
z
" transform="scale(0.015625)"/>
       </defs>
       <use xlink:href="#DejaVuSans-1b"/>
      </g>
     </g>
    </g>
    <g id="ytick_5">
     <g id="line2d_25">
      <path d="M 40.925781 75.728097 
L 598.925781 75.728097 
" clip-path="url(#p2c293ab0aa)" style="fill: none; stroke: #404040; stroke-width: 0.8; stroke-linecap: square"/>
     </g>
     <g id="line2d_26">
      <g>
       <use xlink:href="#m797ef873bd" x="40.925781" y="75.728097" style="fill: #777777; stroke: #777777; stroke-width: 0.8"/>
      </g>
     </g>
     <g id="text_13">
      <!-- 10 -->
      <g style="fill: #777777" transform="translate(21.200781 79.526925) scale(0.1 -0.1)">
       <use xlink:href="#DejaVuSans-14"/>
       <use xlink:href="#DejaVuSans-13" transform="translate(63.625 0)"/>
      </g>
     </g>
    </g>
    <g id="ytick_6">
     <g id="line2d_27">
      <path d="M 40.925781 46.055369 
L 598.925781 46.055369 
" clip-path="url(#p2c293ab0aa)" style="fill: none; stroke: #404040; stroke-width: 0.8; stroke-linecap: square"/>
     </g>
     <g id="line2d_28">
      <g>
       <use xlink:href="#m797ef873bd" x="40.925781" y="46.055369" style="fill: #777777; stroke: #777777; stroke-width: 0.8"/>
      </g>
     </g>
     <g id="text_14">
      <!-- 12 -->
      <g style="fill: #777777" transform="translate(21.200781 49.854197) scale(0.1 -0.1)">
       <use xlink:href="#DejaVuSans-14"/>
       <use xlink:href="#DejaVuSans-15" transform="translate(63.625 0)"/>
      </g>
     </g>
    </g>
    <g id="text_15">
     <!-- Themes -->
     <g style="fill: #777777" transform="translate(14.798437 140.087969) rotate(-90) scale(0.1 -0.1)">
      <defs>
       <path id="DejaVuSans-37" d="M -19 4666 
L 3928 4666 
L 3928 4134 
L 2272 4134 
L 2272 0 
L 1638 0 
L 1638 4134 
L -19 4134 
L -19 4666 
z
" transform="scale(0.015625)"/>
       <path id="DejaVuSans-4b" d="M 3513 2113 
L 3513 0 
L 2938 0 
L 2938 2094 
Q 2938 2591 2744 2837 
Q 2550 3084 2163 3084 
Q 1697 3084 1428 2787 
Q 1159 2491 1159 1978 
L 1159 0 
L 581 0 
L 581 4863 
L 1159 4863 
L 1159 2956 
Q 1366 3272 1645 3428 
Q 1925 3584 2291 3584 
Q 2894 3584 3203 3211 
Q 3513 2838 3513 2113 
z
" transform="scale(0.015625)"/>
       <path id="DejaVuSans-48" d="M 3597 1894 
L 3597 1613 
L 953 1613 
Q 991 1019 1311 708 
Q 1631 397 2203 397 
Q 2534 397 2845 478 
Q 3156 559 3463 722 
L 3463 178 
Q 3153 47 2828 -22 
Q 2503 -91 2169 -91 
Q 1331 -91 842 396 
Q 353 884 353 1716 
Q 353 2575 817 3079 
Q 1281 3584 2069 3584 
Q 2775 3584 3186 3129 
Q 3597 2675 3597 1894 
z
M 3022 2063 
Q 3016 2534 2758 2815 
Q 2500 3097 2075 3097 
Q 1594 3097 1305 2825 
Q 1016 2553 972 2059 
L 3022 2063 
z
" transform="scale(0.015625)"/>
       <path id="DejaVuSans-50" d="M 3328 2828 
Q 3544 3216 3844 3400 
Q 4144 3584 4550 3584 
Q 5097 3584 5394 3201 
Q 5691 2819 5691 2113 
L 5691 0 
L 5113 0 
L 5113 2094 
Q 5113 2597 4934 2840 
Q 4756 3084 4391 3084 
Q 3944 3084 3684 2787 
Q 3425 2491 3425 1978 
L 3425 0 
L 2847 0 
L 2847 2094 
Q 2847 2600 2669 2842 
Q 2491 3084 2119 3084 
Q 1678 3084 1418 2786 
Q 1159 2488 1159 1978 
L 1159 0 
L 581 0 
L 581 3500 
L 1159 3500 
L 1159 2956 
Q 1356 3278 1631 3431 
Q 1906 3584 2284 3584 
Q 2666 3584 2933 3390 
Q 3200 3197 3328 2828 
z
" transform="scale(0.015625)"/>
       <path id="DejaVuSans-56" d="M 2834 3397 
L 2834 2853 
Q 2591 2978 2328 3040 
Q 2066 3103 1784 3103 
Q 1356 3103 1142 2972 
Q 928 2841 928 2578 
Q 928 2378 1081 2264 
Q 1234 2150 1697 2047 
L 1894 2003 
Q 2506 1872 2764 1633 
Q 3022 1394 3022 966 
Q 3022 478 2636 193 
Q 2250 -91 1575 -91 
Q 1294 -91 989 -36 
Q 684 19 347 128 
L 347 722 
Q 666 556 975 473 
Q 1284 391 1588 391 
Q 1994 391 2212 530 
Q 2431 669 2431 922 
Q 2431 1156 2273 1281 
Q 2116 1406 1581 1522 
L 1381 1569 
Q 847 1681 609 1914 
Q 372 2147 372 2553 
Q 372 3047 722 3315 
Q 1072 3584 1716 3584 
Q 2034 3584 2315 3537 
Q 2597 3491 2834 3397 
z
" transform="scale(0.015625)"/>
      </defs>
      <use xlink:href="#DejaVuSans-37"/>
      <use xlink:href="#DejaVuSans-4b" transform="translate(61.078125 0)"/>
      <use xlink:href="#DejaVuSans-48" transform="translate(124.453125 0)"/>
      <use xlink:href="#DejaVuSans-50" transform="translate(185.984375 0)"/>
      <use xlink:href="#DejaVuSans-48" transform="translate(283.390625 0)"/>
      <use xlink:href="#DejaVuSans-56" transform="translate(344.921875 0)"/>
     </g>
    </g>
   </g>
   <g id="line2d_29">
    <path d="M 66.289418 209.255369 
L 116.261713 194.419006 
L 120.575868 90.56446 
L 120.935381 46.055369 
L 276.244962 31.219006 
L 573.562145 31.219006 
" clip-path="url(#p2c293ab0aa)" style="fill: none; stroke: #1f77b4; stroke-width: 1.5; stroke-linecap: square"/>
   </g>
   <g id="patch_3">
    <path d="M 40.925781 218.157187 
L 40.925781 22.317187 
" style="fill: none; stroke: #404040; stroke-width: 0.8; stroke-linejoin: miter; stroke-linecap: square"/>
   </g>
   <g id="patch_4">
    <path d="M 598.925781 218.157187 
L 598.925781 22.317187 
" style="fill: none; stroke: #404040; stroke-width: 0.8; stroke-linejoin: miter; stroke-linecap: square"/>
   </g>
   <g id="patch_5">
    <path d="M 40.925781 218.157187 
L 598.925781 218.157187 
" style="fill: none; stroke: #404040; stroke-width: 0.8; stroke-linejoin: miter; stroke-linecap: square"/>
   </g>
   <g id="patch_6">
    <path d="M 40.925781 22.317187 
L 598.925781 22.317187 
" style="fill: none; stroke: #404040; stroke-width: 0.8; stroke-linejoin: miter; stroke-linecap: square"/>
   </g>
   <g id="text_16">
    <!-- Games -->
    <g style="fill: #777777" transform="translate(298.937969 16.317187) scale(0.12 -0.12)">
     <defs>
      <path id="DejaVuSans-2a" d="M 3809 666 
L 3809 1919 
L 2778 1919 
L 2778 2438 
L 4434 2438 
L 4434 434 
Q 4069 175 3628 42 
Q 3188 -91 2688 -91 
Q 1594 -91 976 548 
Q 359 1188 359 2328 
Q 359 3472 976 4111 
Q 1594 4750 2688 4750 
Q 3144 4750 3555 4637 
Q 3966 4525 4313 4306 
L 4313 3634 
Q 3963 3931 3569 4081 
Q 3175 4231 2741 4231 
Q 1884 4231 1454 3753 
Q 1025 3275 1025 2328 
Q 1025 1384 1454 906 
Q 1884 428 2741 428 
Q 3075 428 3337 486 
Q 3600 544 3809 666 
z
" transform="scale(0.015625)"/>
      <path id="DejaVuSans-44" d="M 2194 1759 
Q 1497 1759 1228 1600 
Q 959 1441 959 1056 
Q 959 750 1161 570 
Q 1363 391 1709 391 
Q 2188 391 2477 730 
Q 2766 1069 2766 1631 
L 2766 1759 
L 2194 1759 
z
M 3341 1997 
L 3341 0 
L 2766 0 
L 2766 531 
Q 2569 213 2275 61 
Q 1981 -91 1556 -91 
Q 1019 -91 701 211 
Q 384 513 384 1019 
Q 384 1609 779 1909 
Q 1175 2209 1959 2209 
L 2766 2209 
L 2766 2266 
Q 2766 2663 2505 2880 
Q 2244 3097 1772 3097 
Q 1472 3097 1187 3025 
Q 903 2953 641 2809 
L 641 3341 
Q 956 3463 1253 3523 
Q 1550 3584 1831 3584 
Q 2591 3584 2966 3190 
Q 3341 2797 3341 1997 
z
" transform="scale(0.015625)"/>
     </defs>
     <use xlink:href="#DejaVuSans-2a"/>
     <use xlink:href="#DejaVuSans-44" transform="translate(77.484375 0)"/>
     <use xlink:href="#DejaVuSans-50" transform="translate(138.765625 0)"/>
     <use xlink:href="#DejaVuSans-48" transform="translate(236.171875 0)"/>
     <use xlink:href="#DejaVuSans-56" transform="translate(297.703125 0)"/>
    </g>
   </g>
  </g>
 </g>
 <defs>
  <clipPath id="p2c293ab0aa">
   <rect x="40.925781" y="22.317187" width="558" height="195.84"/>
  </clipPath>
 </defs>
</svg>
