<svg class="main-svg" xmlns="http://www.w3.org/2000/svg" xmlns:xlink="http://www.w3.org/1999/xlink" width="700" height="500" style="" viewBox="0 0 700 500"><rect x="0" y="0" width="700" height="500" style="fill: rgb(0, 0, 0); fill-opacity: 0;"/><defs id="defs-a9ee75"><g class="clips"><clipPath id="clipa9ee75xyplot" class="plotclip"><rect width="620" height="420"/></clipPath><clipPath class="axesclip" id="clipa9ee75x"><rect x="60" y="0" width="620" height="500"/></clipPath><clipPath class="axesclip" id="clipa9ee75y"><rect x="0" y="40" width="700" height="420"/></clipPath><clipPath class="axesclip" id="clipa9ee75xy"><rect x="60" y="40" width="620" height="420"/></clipPath></g><g class="gradients"/></defs><g class="bglayer"><rect class="bg" x="60" y="40" width="620" height="420" style="fill: rgb(0, 0, 0); fill-opacity: 0; stroke-width: 0;"/></g><g class="layer-below"><g class="imagelayer"/><g class="shapelayer"/></g><g class="cartesianlayer"><g class="subplot xy"><g class="layer-subplot"><g class="shapelayer"/><g class="imagelayer"/></g><g class="gridlayer"><g class="x"><path class="xgrid crisp" transform="translate(130.35,0)" d="M0,40v420" style="stroke: rgb(64, 64, 64); stroke-opacity: 1; stroke-width: 1px;"/><path class="xgrid crisp" transform="translate(219.76,0)" d="M0,40v420" style="stroke: rgb(64, 64, 64); stroke-opacity: 1; stroke-width: 1px;"/><path class="xgrid crisp" transform="translate(306.24,0)" d="M0,40v420" style="stroke: rgb(64, 64, 64); stroke-opacity: 1; stroke-width: 1px;"/><path class="xgrid crisp" transform="translate(395.65,0)" d="M0,40v420" style="stroke: rgb(64, 64, 64); stroke-opacity: 1; stroke-width: 1px;"/><path class="xgrid crisp" transform="translate(485.06,0)" d="M0,40v420" style="stroke: rgb(64, 64, 64); stroke-opacity: 1; stroke-width: 1px;"/><path class="xgrid crisp" transform="translate(575.93,0)" d="M0,40v420" style="stroke: rgb(64, 64, 64); stroke-opacity: 1; stroke-width: 1px;"/><path class="xgrid crisp" transform="translate(665.34,0)" d="M0,40v420" style="stroke: rgb(64, 64, 64); stroke-opacity: 1; stroke-width: 1px;"/></g><g class="y"><path class="ygrid crisp" transform="translate(0,439.55)" d="M60,0h620" style="stroke: rgb(64, 64, 64); stroke-opacity: 1; stroke-width: 1px;"/><path class="ygrid crisp" transform="translate(0,384.25)" d="M60,0h620" style="stroke: rgb(64, 64, 64); stroke-opacity: 1; stroke-width: 1px;"/><path class="ygrid crisp" transform="translate(0,328.95)" d="M60,0h620" style="stroke: rgb(64, 64, 64); stroke-opacity: 1; stroke-width: 1px;"/><path class="ygrid crisp" transform="translate(0,273.64)" d="M60,0h620" style="stroke: rgb(64, 64, 64); stroke-opacity: 1; stroke-width: 1px;"/><path class="ygrid crisp" transform="translate(0,218.34)" d="M60,0h620" style="stroke: rgb(64, 64, 64); stroke-opacity: 1; stroke-width: 1px;"/><path class="ygrid crisp" transform="translate(0,163.04000000000002)" d="M60,0h620" style="stroke: rgb(64, 64, 64); stroke-opacity: 1; stroke-width: 1px;"/><path class="ygrid crisp" transform="translate(0,107.73)" d="M60,0h620" style="stroke: rgb(64, 64, 64); stroke-opacity: 1; stroke-width: 1px;"/><path class="ygrid crisp" transform="translate(0,52.43)" d="M60,0h620" style="stroke: rgb(64, 64, 64); stroke-opacity: 1; stroke-width: 1px;"/></g></g><g class="zerolinelayer"/><path class="xlines-below crisp" d="M0,0" style="fill: none;"/><path class="ylines-below crisp" d="M0,0" style="fill: none;"/><g class="overlines-below"/><g class="xaxislayer-below"><g class="xtick"><text text-anchor="middle" x="0" y="473" transform="translate(130.35,0)" style="font-family: 'Open Sans'; font-size: 12px; fill: rgb(119, 119, 119); fill-opacity: 1; white-space: pre;">Nov 2022</text></g><g class="xtick"><text text-anchor="middle" x="0" y="473" transform="translate(219.76,0)" style="font-family: 'Open Sans'; font-size: 12px; fill: rgb(119, 119, 119); fill-opacity: 1; white-space: pre;">Jan 2023</text></g><g class="xtick"><text text-anchor="middle" x="0" y="473" transform="translate(306.24,0)" style="font-family: 'Open Sans'; font-size: 12px; fill: rgb(119, 119, 119); fill-opacity: 1; white-space: pre;">Mar 2023</text></g><g class="xtick"><text text-anchor="middle" x="0" y="473" transform="translate(395.65,0)" style="font-family: 'Open Sans'; font-size: 12px; fill: rgb(119, 119, 119); fill-opacity: 1; white-space: pre;">May 2023</text></g><g class="xtick"><text text-anchor="middle" x="0" y="473" transform="translate(485.06,0)" style="font-family: 'Open Sans'; font-size: 12px; fill: rgb(119, 119, 119); fill-opacity: 1; white-space: pre;">Jul 2023</text></g><g class="xtick"><text text-anchor="middle" x="0" y="473" transform="translate(575.93,0)" style="font-family: 'Open Sans'; font-size: 12px; fill: rgb(119, 119, 119); fill-opacity: 1; white-space: pre;">Sep 2023</text></g><g class="xtick"><text text-anchor="middle" x="0" y="473" transform="translate(665.34,0)" style="font-family: 'Open Sans'; font-size: 12px; fill: rgb(119, 119, 119); fill-opacity: 1; white-space: pre;">Nov 2023</text></g></g><g class="yaxislayer-below"><g class="ytick"><text text-anchor="end" x="59" y="4.199999999999999" transform="translate(0,439.55)" style="font-family: 'Open Sans'; font-size: 12px; fill: rgb(119, 119, 119); fill-opacity: 1; white-space: pre;">0</text></g><g class="ytick"><text text-anchor="end" x="59" y="4.199999999999999" transform="translate(0,384.25)" style="font-family: 'Open Sans'; font-size: 12px; fill: rgb(119, 119, 119); fill-opacity: 1; white-space: pre;">200</text></g><g class="ytick"><text text-anchor="end" x="59" y="4.199999999999999" transform="translate(0,328.95)" style="font-family: 'Open Sans'; font-size: 12px; fill: rgb(119, 119, 119); fill-opacity: 1; white-space: pre;">400</text></g><g class="ytick"><text text-anchor="end" x="59" y="4.199999999999999" transform="translate(0,273.64)" style="font-family: 'Open Sans'; font-size: 12px; fill: rgb(119, 119, 119); fill-opacity: 1; white-space: pre;">600</text></g><g class="ytick"><text text-anchor="end" x="59" y="4.199999999999999" transform="translate(0,218.34)" style="font-family: 'Open Sans'; font-size: 12px; fill: rgb(119, 119, 119); fill-opacity: 1; white-space: pre;">800</text></g><g class="ytick"><text text-anchor="end" x="59" y="4.199999999999999" transform="translate(0,163.04000000000002)" style="font-family: 'Open Sans'; font-size: 12px; fill: rgb(119, 119, 119); fill-opacity: 1; white-space: pre;">1000</text></g><g class="ytick"><text text-anchor="end" x="59" y="4.199999999999999" transform="translate(0,107.73)" style="font-family: 'Open Sans'; font-size: 12px; fill: rgb(119, 119, 119); fill-opacity: 1; white-space: pre;">1200</text></g><g class="ytick"><text text-anchor="end" x="59" y="4.199999999999999" transform="translate(0,52.43)" style="font-family: 'Open Sans'; font-size: 12px; fill: rgb(119, 119, 119); fill-opacity: 1; white-space: pre;">1400</text></g></g><g class="overaxes-below"/><g class="plot" transform="translate(60,40)" clip-path="url('#clipa9ee75xyplot')"><g class="scatterlayer mlayer"><g class="trace scatter traceba57f6" style="stroke-miterlimit: 2; opacity: 1;"><g class="fills"/><g class="errorbars"/><g class="lines"><path class="js-line" d="M0,399L30.78,398.45L41.04,397.06L42.51,393.19L43.97,391.53L46.9,389.6L49.83,389.32L51.3,389.05L58.63,388.77L60.09,387.39L95.27,386.28L148.04,385.73L187.61,379.37L189.08,374.39L190.54,372.45L192.01,367.48L197.87,351.72L199.34,336.51L202.27,330.98L205.2,322.68L209.6,310.79L211.06,300.01L212.53,214.29L215.46,205.16L216.93,196.31L218.39,181.93L219.86,181.66L225.72,180.27L227.19,179.44L231.58,178.89L319.53,173.36L328.32,170.04L344.44,169.21L364.96,167.55L417.73,165.62L439.72,163.96L442.65,160.37L444.11,159.54L469.03,157.88L482.22,157.05L505.67,150.41L532.06,148.2L534.99,142.94L536.45,141.29L537.92,121.1L539.39,114.46L540.85,113.08L545.25,108.93L555.51,104.78L559.91,92.62L561.37,84.6L562.84,75.47L564.3,73.81L574.56,58.61L580.43,47.27L583.36,46.72L587.75,40.08L589.22,28.19L590.69,27.91L599.48,22.11L605.34,21L620,21" style="vector-effect: non-scaling-stroke; fill: none; stroke: rgb(31, 119, 180); stroke-opacity: 1; stroke-width: 2px; opacity: 1;"/></g><g class="points"/><g class="text"/></g></g></g><g class="overplot"/><path class="xlines-above"/><path class="ylines-above"/><g class="overlines-above"/><g class="xaxislayer-above"/><g class="yaxislayer-above"/><g class="overaxes-above"/></g></g><g class="polarlayer"/><g class="ternarylayer"/><g class="geolayer"/><g class="funnelarealayer"/><g class="pielayer"/><g class="treemaplayer"/><g class="sunburstlayer"/><g class="glimages"/><defs id="topdefs-a9ee75"><g class="clips"/></defs><g class="layer-above"><g class="imagelayer"/><g class="shapelayer"/></g><g class="infolayer"><g class="g-gtitle"><text class="gtitle" x="350" y="20" text-anchor="middle" dy="0em" style="font-family: 'Open Sans'; font-size: 17px; fill: rgb(119, 119, 119); opacity: 1; font-weight: normal; white-space: pre;">Movies</text></g><g class="g-xtitle"/><g class="g-ytitle"><text class="ytitle" transform="rotate(-90,15.700000000000003,250)" x="15.700000000000003" y="250" text-anchor="middle" style="font-family: 'Open Sans'; font-size: 14px; fill: rgb(119, 119, 119); opacity: 1; font-weight: normal; white-space: pre;">Themes</text></g></g></svg>