<svg class="main-svg" xmlns="http://www.w3.org/2000/svg" xmlns:xlink="http://www.w3.org/1999/xlink" width="700" height="500" style="" viewBox="0 0 700 500"><rect x="0" y="0" width="700" height="500" style="fill: rgb(0, 0, 0); fill-opacity: 0;"/><defs id="defs-a363a7"><g class="clips"><clipPath id="clipa363a7xyplot" class="plotclip"><rect width="620" height="420"/></clipPath><clipPath class="axesclip" id="clipa363a7x"><rect x="60" y="0" width="620" height="500"/></clipPath><clipPath class="axesclip" id="clipa363a7y"><rect x="0" y="40" width="700" height="420"/></clipPath><clipPath class="axesclip" id="clipa363a7xy"><rect x="60" y="40" width="620" height="420"/></clipPath></g><g class="gradients"/></defs><g class="bglayer"><rect class="bg" x="60" y="40" width="620" height="420" style="fill: rgb(0, 0, 0); fill-opacity: 0; stroke-width: 0;"/></g><g class="layer-below"><g class="imagelayer"/><g class="shapelayer"/></g><g class="cartesianlayer"><g class="subplot xy"><g class="layer-subplot"><g class="shapelayer"/><g class="imagelayer"/></g><g class="gridlayer"><g class="x"><path class="xgrid crisp" transform="translate(76.24,0)" d="M0,40v420" style="stroke: rgb(64, 64, 64); stroke-opacity: 1; stroke-width: 1px;"/><path class="xgrid crisp" transform="translate(164.13,0)" d="M0,40v420" style="stroke: rgb(64, 64, 64); stroke-opacity: 1; stroke-width: 1px;"/><path class="xgrid crisp" transform="translate(250.11,0)" d="M0,40v420" style="stroke: rgb(64, 64, 64); stroke-opacity: 1; stroke-width: 1px;"/><path class="xgrid crisp" transform="translate(337.04,0)" d="M0,40v420" style="stroke: rgb(64, 64, 64); stroke-opacity: 1; stroke-width: 1px;"/><path class="xgrid crisp" transform="translate(424.93,0)" d="M0,40v420" style="stroke: rgb(64, 64, 64); stroke-opacity: 1; stroke-width: 1px;"/><path class="xgrid crisp" transform="translate(512.8199999999999,0)" d="M0,40v420" style="stroke: rgb(64, 64, 64); stroke-opacity: 1; stroke-width: 1px;"/><path class="xgrid crisp" transform="translate(599.75,0)" d="M0,40v420" style="stroke: rgb(64, 64, 64); stroke-opacity: 1; stroke-width: 1px;"/></g><g class="y"><path class="ygrid crisp" transform="translate(0,439.26)" d="M60,0h620" style="stroke: rgb(64, 64, 64); stroke-opacity: 1; stroke-width: 1px;"/><path class="ygrid crisp" transform="translate(0,375.25)" d="M60,0h620" style="stroke: rgb(64, 64, 64); stroke-opacity: 1; stroke-width: 1px;"/><path class="ygrid crisp" transform="translate(0,311.25)" d="M60,0h620" style="stroke: rgb(64, 64, 64); stroke-opacity: 1; stroke-width: 1px;"/><path class="ygrid crisp" transform="translate(0,247.25)" d="M60,0h620" style="stroke: rgb(64, 64, 64); stroke-opacity: 1; stroke-width: 1px;"/><path class="ygrid crisp" transform="translate(0,183.25)" d="M60,0h620" style="stroke: rgb(64, 64, 64); stroke-opacity: 1; stroke-width: 1px;"/><path class="ygrid crisp" transform="translate(0,119.24)" d="M60,0h620" style="stroke: rgb(64, 64, 64); stroke-opacity: 1; stroke-width: 1px;"/><path class="ygrid crisp" transform="translate(0,55.24)" d="M60,0h620" style="stroke: rgb(64, 64, 64); stroke-opacity: 1; stroke-width: 1px;"/></g></g><g class="zerolinelayer"/><path class="xlines-below crisp" d="M0,0" style="fill: none;"/><path class="ylines-below crisp" d="M0,0" style="fill: none;"/><g class="overlines-below"/><g class="xaxislayer-below"><g class="xtick"><text text-anchor="middle" x="0" y="473" transform="translate(76.24,0)" style="font-family: 'Open Sans'; font-size: 12px; fill: rgb(119, 119, 119); fill-opacity: 1; white-space: pre;">Oct 2022</text></g><g class="xtick"><text text-anchor="middle" x="0" y="473" transform="translate(164.13,0)" style="font-family: 'Open Sans'; font-size: 12px; fill: rgb(119, 119, 119); fill-opacity: 1; white-space: pre;">Jan 2023</text></g><g class="xtick"><text text-anchor="middle" x="0" y="473" transform="translate(250.11,0)" style="font-family: 'Open Sans'; font-size: 12px; fill: rgb(119, 119, 119); fill-opacity: 1; white-space: pre;">Apr 2023</text></g><g class="xtick"><text text-anchor="middle" x="0" y="473" transform="translate(337.04,0)" style="font-family: 'Open Sans'; font-size: 12px; fill: rgb(119, 119, 119); fill-opacity: 1; white-space: pre;">Jul 2023</text></g><g class="xtick"><text text-anchor="middle" x="0" y="473" transform="translate(424.93,0)" style="font-family: 'Open Sans'; font-size: 12px; fill: rgb(119, 119, 119); fill-opacity: 1; white-space: pre;">Oct 2023</text></g><g class="xtick"><text text-anchor="middle" x="0" y="473" transform="translate(512.8199999999999,0)" style="font-family: 'Open Sans'; font-size: 12px; fill: rgb(119, 119, 119); fill-opacity: 1; white-space: pre;">Jan 2024</text></g><g class="xtick"><text text-anchor="middle" x="0" y="473" transform="translate(599.75,0)" style="font-family: 'Open Sans'; font-size: 12px; fill: rgb(119, 119, 119); fill-opacity: 1; white-space: pre;">Apr 2024</text></g></g><g class="yaxislayer-below"><g class="ytick"><text text-anchor="end" x="59" y="4.199999999999999" transform="translate(0,439.26)" style="font-family: 'Open Sans'; font-size: 12px; fill: rgb(119, 119, 119); fill-opacity: 1; white-space: pre;">0</text></g><g class="ytick"><text text-anchor="end" x="59" y="4.199999999999999" transform="translate(0,375.25)" style="font-family: 'Open Sans'; font-size: 12px; fill: rgb(119, 119, 119); fill-opacity: 1; white-space: pre;">500</text></g><g class="ytick"><text text-anchor="end" x="59" y="4.199999999999999" transform="translate(0,311.25)" style="font-family: 'Open Sans'; font-size: 12px; fill: rgb(119, 119, 119); fill-opacity: 1; white-space: pre;">1000</text></g><g class="ytick"><text text-anchor="end" x="59" y="4.199999999999999" transform="translate(0,247.25)" style="font-family: 'Open Sans'; font-size: 12px; fill: rgb(119, 119, 119); fill-opacity: 1; white-space: pre;">1500</text></g><g class="ytick"><text text-anchor="end" x="59" y="4.199999999999999" transform="translate(0,183.25)" style="font-family: 'Open Sans'; font-size: 12px; fill: rgb(119, 119, 119); fill-opacity: 1; white-space: pre;">2000</text></g><g class="ytick"><text text-anchor="end" x="59" y="4.199999999999999" transform="translate(0,119.24)" style="font-family: 'Open Sans'; font-size: 12px; fill: rgb(119, 119, 119); fill-opacity: 1; white-space: pre;">2500</text></g><g class="ytick"><text text-anchor="end" x="59" y="4.199999999999999" transform="translate(0,55.24)" style="font-family: 'Open Sans'; font-size: 12px; fill: rgb(119, 119, 119); fill-opacity: 1; white-space: pre;">3000</text></g></g><g class="overaxes-below"/><g class="plot" transform="translate(60,40)" clip-path="url('#clipa363a7xyplot')"><g class="scatterlayer mlayer"><g class="trace scatter trace03c0ab" style="stroke-miterlimit: 2; opacity: 1;"><g class="fills"/><g class="errorbars"/><g class="lines"><path class="js-line" d="M0,399L26.75,398.1L27.7,396.31L30.57,394.65L32.48,394.52L39.17,393.62L62.1,393.11L96.49,392.86L122.28,389.91L125.15,384.41L128.97,377.11L129.92,370.07L131.83,367.51L133.74,363.67L136.61,358.17L137.57,353.17L138.52,313.49L140.43,309.27L141.39,305.17L142.34,298.52L143.3,298.39L150.94,297.11L208.26,294.55L213.99,293.01L224.5,292.63L237.87,291.86L272.27,290.96L286.59,290.2L288.51,288.53L289.46,288.15L305.7,287.38L314.3,287L329.58,283.92L346.78,282.9L348.69,280.47L349.65,279.7L350.6,270.35L352.51,266.64L354.42,265.62L355.38,264.72L362.06,262.8L364.93,257.17L365.89,253.46L366.84,249.23L367.8,248.47L374.48,241.43L378.31,236.18L380.22,235.92L383.08,232.85L384.04,227.34L384.99,227.22L390.72,224.53L394.55,224.02L404.1,215.82L405.05,207.38L406.01,203.79L408.88,203.02L409.83,196.62L411.74,196.5L412.7,196.37L413.65,195.34L417.47,192.4L419.38,192.27L426.07,166.93L427.03,160.78L427.98,160.53L428.94,158.22L429.89,157.97L430.85,149.65L434.67,148.88L435.62,148.37L445.18,147.85L449.95,146.7L451.86,141.2L453.78,140.69L455.69,123.15L456.64,122.38L461.42,118.16L462.37,117.9L463.33,116.62L465.24,115.72L466.19,112.27L467.15,112.14L471.93,110.6L480.52,109.96L483.39,109.58L484.35,108.17L486.26,105.61L491.03,100.75L493.9,98.44L514.92,95.63L517.78,88.59L519.69,87.69L522.56,85.64L523.51,81.8L530.2,80.91L531.16,77.96L532.11,77.45L533.07,75.4L534.02,67.85L535.93,66.83L540.71,64.65L541.66,62.99L577.01,59.27L577.97,50.19L580.83,46.99L581.79,46.86L594.21,46.47L595.16,45.19L598.98,39.18L599.94,37L600.89,27.78L603.76,24.58L605.67,22.66L614.27,22.28L620,21" style="vector-effect: non-scaling-stroke; fill: none; stroke: rgb(31, 119, 180); stroke-opacity: 1; stroke-width: 2px; opacity: 1;"/></g><g class="points"/><g class="text"/></g></g></g><g class="overplot"/><path class="xlines-above"/><path class="ylines-above"/><g class="overlines-above"/><g class="xaxislayer-above"/><g class="yaxislayer-above"/><g class="overaxes-above"/></g></g><g class="polarlayer"/><g class="ternarylayer"/><g class="geolayer"/><g class="funnelarealayer"/><g class="pielayer"/><g class="treemaplayer"/><g class="sunburstlayer"/><g class="glimages"/><defs id="topdefs-a363a7"><g class="clips"/></defs><g class="layer-above"><g class="imagelayer"/><g class="shapelayer"/></g><g class="infolayer"><g class="g-gtitle"><text class="gtitle" x="350" y="20" text-anchor="middle" dy="0em" style="font-family: 'Open Sans'; font-size: 17px; fill: rgb(119, 119, 119); opacity: 1; font-weight: normal; white-space: pre;">Movies</text></g><g class="g-xtitle"/><g class="g-ytitle"><text class="ytitle" transform="rotate(-90,14.700000000000003,250)" x="14.700000000000003" y="250" text-anchor="middle" style="font-family: 'Open Sans'; font-size: 14px; fill: rgb(119, 119, 119); opacity: 1; font-weight: normal; white-space: pre;">Themes</text></g></g></svg>