<svg class="main-svg" xmlns="http://www.w3.org/2000/svg" xmlns:xlink="http://www.w3.org/1999/xlink" width="700" height="500" style="" viewBox="0 0 700 500"><rect x="0" y="0" width="700" height="500" style="fill: rgb(0, 0, 0); fill-opacity: 0;"/><defs id="defs-e448a8"><g class="clips"><clipPath id="clipe448a8xyplot" class="plotclip"><rect width="620" height="420"/></clipPath><clipPath class="axesclip" id="clipe448a8x"><rect x="60" y="0" width="620" height="500"/></clipPath><clipPath class="axesclip" id="clipe448a8y"><rect x="0" y="40" width="700" height="420"/></clipPath><clipPath class="axesclip" id="clipe448a8xy"><rect x="60" y="40" width="620" height="420"/></clipPath></g><g class="gradients"/></defs><g class="bglayer"><rect class="bg" x="60" y="40" width="620" height="420" style="fill: rgb(0, 0, 0); fill-opacity: 0; stroke-width: 0;"/></g><g class="layer-below"><g class="imagelayer"/><g class="shapelayer"/></g><g class="cartesianlayer"><g class="subplot xy"><g class="layer-subplot"><g class="shapelayer"/><g class="imagelayer"/></g><g class="gridlayer"><g class="x"><path class="xgrid crisp" transform="translate(126.29,0)" d="M0,40v420" style="stroke: rgb(64, 64, 64); stroke-opacity: 1; stroke-width: 1px;"/><path class="xgrid crisp" transform="translate(247.17,0)" d="M0,40v420" style="stroke: rgb(64, 64, 64); stroke-opacity: 1; stroke-width: 1px;"/><path class="xgrid crisp" transform="translate(364.15,0)" d="M0,40v420" style="stroke: rgb(64, 64, 64); stroke-opacity: 1; stroke-width: 1px;"/><path class="xgrid crisp" transform="translate(485.03,0)" d="M0,40v420" style="stroke: rgb(64, 64, 64); stroke-opacity: 1; stroke-width: 1px;"/><path class="xgrid crisp" transform="translate(605.91,0)" d="M0,40v420" style="stroke: rgb(64, 64, 64); stroke-opacity: 1; stroke-width: 1px;"/></g><g class="y"><path class="ygrid crisp" transform="translate(0,439.95)" d="M60,0h620" style="stroke: rgb(64, 64, 64); stroke-opacity: 1; stroke-width: 1px;"/><path class="ygrid crisp" transform="translate(0,392.46)" d="M60,0h620" style="stroke: rgb(64, 64, 64); stroke-opacity: 1; stroke-width: 1px;"/><path class="ygrid crisp" transform="translate(0,344.97)" d="M60,0h620" style="stroke: rgb(64, 64, 64); stroke-opacity: 1; stroke-width: 1px;"/><path class="ygrid crisp" transform="translate(0,297.49)" d="M60,0h620" style="stroke: rgb(64, 64, 64); stroke-opacity: 1; stroke-width: 1px;"/><path class="ygrid crisp" transform="translate(0,250)" d="M60,0h620" style="stroke: rgb(64, 64, 64); stroke-opacity: 1; stroke-width: 1px;"/><path class="ygrid crisp" transform="translate(0,202.51)" d="M60,0h620" style="stroke: rgb(64, 64, 64); stroke-opacity: 1; stroke-width: 1px;"/><path class="ygrid crisp" transform="translate(0,155.03)" d="M60,0h620" style="stroke: rgb(64, 64, 64); stroke-opacity: 1; stroke-width: 1px;"/><path class="ygrid crisp" transform="translate(0,107.54)" d="M60,0h620" style="stroke: rgb(64, 64, 64); stroke-opacity: 1; stroke-width: 1px;"/><path class="ygrid crisp" transform="translate(0,60.05)" d="M60,0h620" style="stroke: rgb(64, 64, 64); stroke-opacity: 1; stroke-width: 1px;"/></g></g><g class="zerolinelayer"/><path class="xlines-below crisp" d="M0,0" style="fill: none;"/><path class="ylines-below crisp" d="M0,0" style="fill: none;"/><g class="overlines-below"/><g class="xaxislayer-below"><g class="xtick"><text text-anchor="middle" x="0" y="473" transform="translate(126.29,0)" style="font-family: 'Open Sans'; font-size: 12px; fill: rgb(119, 119, 119); fill-opacity: 1; white-space: pre;">Oct 2022</text></g><g class="xtick"><text text-anchor="middle" x="0" y="473" transform="translate(247.17,0)" style="font-family: 'Open Sans'; font-size: 12px; fill: rgb(119, 119, 119); fill-opacity: 1; white-space: pre;">Nov 2022</text></g><g class="xtick"><text text-anchor="middle" x="0" y="473" transform="translate(364.15,0)" style="font-family: 'Open Sans'; font-size: 12px; fill: rgb(119, 119, 119); fill-opacity: 1; white-space: pre;">Dec 2022</text></g><g class="xtick"><text text-anchor="middle" x="0" y="473" transform="translate(485.03,0)" style="font-family: 'Open Sans'; font-size: 12px; fill: rgb(119, 119, 119); fill-opacity: 1; white-space: pre;">Jan 2023</text></g><g class="xtick"><text text-anchor="middle" x="0" y="473" transform="translate(605.91,0)" style="font-family: 'Open Sans'; font-size: 12px; fill: rgb(119, 119, 119); fill-opacity: 1; white-space: pre;">Feb 2023</text></g></g><g class="yaxislayer-below"><g class="ytick"><text text-anchor="end" x="59" y="4.199999999999999" transform="translate(0,439.95)" style="font-family: 'Open Sans'; font-size: 12px; fill: rgb(119, 119, 119); fill-opacity: 1; white-space: pre;">0</text></g><g class="ytick"><text text-anchor="end" x="59" y="4.199999999999999" transform="translate(0,392.46)" style="font-family: 'Open Sans'; font-size: 12px; fill: rgb(119, 119, 119); fill-opacity: 1; white-space: pre;">100</text></g><g class="ytick"><text text-anchor="end" x="59" y="4.199999999999999" transform="translate(0,344.97)" style="font-family: 'Open Sans'; font-size: 12px; fill: rgb(119, 119, 119); fill-opacity: 1; white-space: pre;">200</text></g><g class="ytick"><text text-anchor="end" x="59" y="4.199999999999999" transform="translate(0,297.49)" style="font-family: 'Open Sans'; font-size: 12px; fill: rgb(119, 119, 119); fill-opacity: 1; white-space: pre;">300</text></g><g class="ytick"><text text-anchor="end" x="59" y="4.199999999999999" transform="translate(0,250)" style="font-family: 'Open Sans'; font-size: 12px; fill: rgb(119, 119, 119); fill-opacity: 1; white-space: pre;">400</text></g><g class="ytick"><text text-anchor="end" x="59" y="4.199999999999999" transform="translate(0,202.51)" style="font-family: 'Open Sans'; font-size: 12px; fill: rgb(119, 119, 119); fill-opacity: 1; white-space: pre;">500</text></g><g class="ytick"><text text-anchor="end" x="59" y="4.199999999999999" transform="translate(0,155.03)" style="font-family: 'Open Sans'; font-size: 12px; fill: rgb(119, 119, 119); fill-opacity: 1; white-space: pre;">600</text></g><g class="ytick"><text text-anchor="end" x="59" y="4.199999999999999" transform="translate(0,107.54)" style="font-family: 'Open Sans'; font-size: 12px; fill: rgb(119, 119, 119); fill-opacity: 1; white-space: pre;">700</text></g><g class="ytick"><text text-anchor="end" x="59" y="4.199999999999999" transform="translate(0,60.05)" style="font-family: 'Open Sans'; font-size: 12px; fill: rgb(119, 119, 119); fill-opacity: 1; white-space: pre;">800</text></g></g><g class="overaxes-below"/><g class="plot" transform="translate(60,40)" clip-path="url('#clipe448a8xyplot')"><g class="scatterlayer mlayer"><g class="trace scatter trace7cb7a4" style="stroke-miterlimit: 2; opacity: 1;"><g class="fills"/><g class="errorbars"/><g class="lines"><path class="js-line" d="M0,399L81.89,398.05L109.18,395.68L113.08,389.03L116.98,386.18L124.78,382.85L132.58,382.38L136.48,381.9L155.97,381.43L159.87,379.06L253.46,377.16L393.84,376.21L499.12,365.28L503.02,356.74L506.92,353.41L510.82,344.86L526.42,317.8L530.31,291.68L538.11,282.18L542.01,276.48L545.91,267.93L557.61,247.52L561.51,228.99L565.41,81.78L569.31,75.14L573.21,66.11L577.11,50.92L581.01,26.22L584.91,25.75L600.5,23.37L604.4,21.95L620,21" style="vector-effect: non-scaling-stroke; fill: none; stroke: rgb(31, 119, 180); stroke-opacity: 1; stroke-width: 2px; opacity: 1;"/></g><g class="points"/><g class="text"/></g></g></g><g class="overplot"/><path class="xlines-above"/><path class="ylines-above"/><g class="overlines-above"/><g class="xaxislayer-above"/><g class="yaxislayer-above"/><g class="overaxes-above"/></g></g><g class="polarlayer"/><g class="ternarylayer"/><g class="geolayer"/><g class="funnelarealayer"/><g class="pielayer"/><g class="treemaplayer"/><g class="sunburstlayer"/><g class="glimages"/><defs id="topdefs-e448a8"><g class="clips"/></defs><g class="layer-above"><g class="imagelayer"/><g class="shapelayer"/></g><g class="infolayer"><g class="g-gtitle"><text class="gtitle" x="350" y="20" text-anchor="middle" dy="0em" style="font-family: 'Open Sans'; font-size: 17px; fill: rgb(119, 119, 119); opacity: 1; font-weight: normal; white-space: pre;">Movies</text></g><g class="g-xtitle"/><g class="g-ytitle"><text class="ytitle" transform="rotate(-90,20.700000000000003,250)" x="20.700000000000003" y="250" text-anchor="middle" style="font-family: 'Open Sans'; font-size: 14px; fill: rgb(119, 119, 119); opacity: 1; font-weight: normal; white-space: pre;">Themes</text></g></g></svg>