<svg class="main-svg" xmlns="http://www.w3.org/2000/svg" xmlns:xlink="http://www.w3.org/1999/xlink" width="700" height="500" style="" viewBox="0 0 700 500"><rect x="0" y="0" width="700" height="500" style="fill: rgb(0, 0, 0); fill-opacity: 0;"/><defs id="defs-c37719"><g class="clips"><clipPath id="clipc37719xyplot" class="plotclip"><rect width="620" height="420"/></clipPath><clipPath class="axesclip" id="clipc37719x"><rect x="60" y="0" width="620" height="500"/></clipPath><clipPath class="axesclip" id="clipc37719y"><rect x="0" y="40" width="700" height="420"/></clipPath><clipPath class="axesclip" id="clipc37719xy"><rect x="60" y="40" width="620" height="420"/></clipPath></g><g class="gradients"/></defs><g class="bglayer"><rect class="bg" x="60" y="40" width="620" height="420" style="fill: rgb(0, 0, 0); fill-opacity: 0; stroke-width: 0;"/></g><g class="layer-below"><g class="imagelayer"/><g class="shapelayer"/></g><g class="cartesianlayer"><g class="subplot xy"><g class="layer-subplot"><g class="shapelayer"/><g class="imagelayer"/></g><g class="gridlayer"><g class="x"><path class="xgrid crisp" transform="translate(117.32,0)" d="M0,40v420" style="stroke: rgb(64, 64, 64); stroke-opacity: 1; stroke-width: 1px;"/><path class="xgrid crisp" transform="translate(212.5,0)" d="M0,40v420" style="stroke: rgb(64, 64, 64); stroke-opacity: 1; stroke-width: 1px;"/><path class="xgrid crisp" transform="translate(309.26,0)" d="M0,40v420" style="stroke: rgb(64, 64, 64); stroke-opacity: 1; stroke-width: 1px;"/><path class="xgrid crisp" transform="translate(404.97,0)" d="M0,40v420" style="stroke: rgb(64, 64, 64); stroke-opacity: 1; stroke-width: 1px;"/><path class="xgrid crisp" transform="translate(501.73,0)" d="M0,40v420" style="stroke: rgb(64, 64, 64); stroke-opacity: 1; stroke-width: 1px;"/><path class="xgrid crisp" transform="translate(596.91,0)" d="M0,40v420" style="stroke: rgb(64, 64, 64); stroke-opacity: 1; stroke-width: 1px;"/></g><g class="y"><path class="ygrid crisp" transform="translate(0,439.18)" d="M60,0h620" style="stroke: rgb(64, 64, 64); stroke-opacity: 1; stroke-width: 1px;"/><path class="ygrid crisp" transform="translate(0,394.88)" d="M60,0h620" style="stroke: rgb(64, 64, 64); stroke-opacity: 1; stroke-width: 1px;"/><path class="ygrid crisp" transform="translate(0,350.59)" d="M60,0h620" style="stroke: rgb(64, 64, 64); stroke-opacity: 1; stroke-width: 1px;"/><path class="ygrid crisp" transform="translate(0,306.3)" d="M60,0h620" style="stroke: rgb(64, 64, 64); stroke-opacity: 1; stroke-width: 1px;"/><path class="ygrid crisp" transform="translate(0,262)" d="M60,0h620" style="stroke: rgb(64, 64, 64); stroke-opacity: 1; stroke-width: 1px;"/><path class="ygrid crisp" transform="translate(0,217.71)" d="M60,0h620" style="stroke: rgb(64, 64, 64); stroke-opacity: 1; stroke-width: 1px;"/><path class="ygrid crisp" transform="translate(0,173.42)" d="M60,0h620" style="stroke: rgb(64, 64, 64); stroke-opacity: 1; stroke-width: 1px;"/><path class="ygrid crisp" transform="translate(0,129.12)" d="M60,0h620" style="stroke: rgb(64, 64, 64); stroke-opacity: 1; stroke-width: 1px;"/><path class="ygrid crisp" transform="translate(0,84.83)" d="M60,0h620" style="stroke: rgb(64, 64, 64); stroke-opacity: 1; stroke-width: 1px;"/></g></g><g class="zerolinelayer"/><path class="xlines-below crisp" d="M0,0" style="fill: none;"/><path class="ylines-below crisp" d="M0,0" style="fill: none;"/><g class="overlines-below"/><g class="xaxislayer-below"><g class="xtick"><text text-anchor="middle" x="0" y="473" transform="translate(117.32,0)" style="font-family: 'Open Sans'; font-size: 12px; fill: rgb(119, 119, 119); fill-opacity: 1; white-space: pre;">Jan 2023</text></g><g class="xtick"><text text-anchor="middle" x="0" y="473" transform="translate(212.5,0)" style="font-family: 'Open Sans'; font-size: 12px; fill: rgb(119, 119, 119); fill-opacity: 1; white-space: pre;">Jul 2023</text></g><g class="xtick"><text text-anchor="middle" x="0" y="473" transform="translate(309.26,0)" style="font-family: 'Open Sans'; font-size: 12px; fill: rgb(119, 119, 119); fill-opacity: 1; white-space: pre;">Jan 2024</text></g><g class="xtick"><text text-anchor="middle" x="0" y="473" transform="translate(404.97,0)" style="font-family: 'Open Sans'; font-size: 12px; fill: rgb(119, 119, 119); fill-opacity: 1; white-space: pre;">Jul 2024</text></g><g class="xtick"><text text-anchor="middle" x="0" y="473" transform="translate(501.73,0)" style="font-family: 'Open Sans'; font-size: 12px; fill: rgb(119, 119, 119); fill-opacity: 1; white-space: pre;">Jan 2025</text></g><g class="xtick"><text text-anchor="middle" x="0" y="473" transform="translate(596.91,0)" style="font-family: 'Open Sans'; font-size: 12px; fill: rgb(119, 119, 119); fill-opacity: 1; white-space: pre;">Jul 2025</text></g></g><g class="yaxislayer-below"><g class="ytick"><text text-anchor="end" x="59" y="4.199999999999999" transform="translate(0,439.18)" style="font-family: 'Open Sans'; font-size: 12px; fill: rgb(119, 119, 119); fill-opacity: 1; white-space: pre;">0</text></g><g class="ytick"><text text-anchor="end" x="59" y="4.199999999999999" transform="translate(0,394.88)" style="font-family: 'Open Sans'; font-size: 12px; fill: rgb(119, 119, 119); fill-opacity: 1; white-space: pre;">500</text></g><g class="ytick"><text text-anchor="end" x="59" y="4.199999999999999" transform="translate(0,350.59)" style="font-family: 'Open Sans'; font-size: 12px; fill: rgb(119, 119, 119); fill-opacity: 1; white-space: pre;">1000</text></g><g class="ytick"><text text-anchor="end" x="59" y="4.199999999999999" transform="translate(0,306.3)" style="font-family: 'Open Sans'; font-size: 12px; fill: rgb(119, 119, 119); fill-opacity: 1; white-space: pre;">1500</text></g><g class="ytick"><text text-anchor="end" x="59" y="4.199999999999999" transform="translate(0,262)" style="font-family: 'Open Sans'; font-size: 12px; fill: rgb(119, 119, 119); fill-opacity: 1; white-space: pre;">2000</text></g><g class="ytick"><text text-anchor="end" x="59" y="4.199999999999999" transform="translate(0,217.71)" style="font-family: 'Open Sans'; font-size: 12px; fill: rgb(119, 119, 119); fill-opacity: 1; white-space: pre;">2500</text></g><g class="ytick"><text text-anchor="end" x="59" y="4.199999999999999" transform="translate(0,173.42)" style="font-family: 'Open Sans'; font-size: 12px; fill: rgb(119, 119, 119); fill-opacity: 1; white-space: pre;">3000</text></g><g class="ytick"><text text-anchor="end" x="59" y="4.199999999999999" transform="translate(0,129.12)" style="font-family: 'Open Sans'; font-size: 12px; fill: rgb(119, 119, 119); fill-opacity: 1; white-space: pre;">3500</text></g><g class="ytick"><text text-anchor="end" x="59" y="4.199999999999999" transform="translate(0,84.83)" style="font-family: 'Open Sans'; font-size: 12px; fill: rgb(119, 119, 119); fill-opacity: 1; white-space: pre;">4000</text></g><g class="ytick"><text text-anchor="end" x="59" y="4.199999999999999" transform="translate(0,40.54)" style="font-family: 'Open Sans'; font-size: 12px; fill: rgb(119, 119, 119); fill-opacity: 1; white-space: pre;">4500</text></g></g><g class="overaxes-below"/><g class="plot" transform="translate(60,40)" clip-path="url('#clipc37719xyplot')"><g class="scatterlayer mlayer"><g class="trace scatter tracec60a05" style="stroke-miterlimit: 2; opacity: 1;"><g class="fills"/><g class="errorbars"/><g class="lines"><path class="js-line" d="M0,399L14.72,398.38L15.25,397.14L16.83,395.99L17.88,395.9L21.56,395.28L34.18,394.93L53.11,394.75L67.31,392.71L70.99,383.85L71.52,378.98L73.62,374.55L75.2,370.74L75.73,367.29L76.25,339.82L77.3,336.9L77.83,334.07L78.88,329.37L79.41,329.28L83.09,328.48L114.64,326.71L117.79,325.65L123.58,325.38L149.87,324.23L157.76,323.7L159.34,322.28L168.28,321.75L173.01,321.49L181.42,319.36L190.89,318.65L191.94,316.97L192.47,316.44L192.99,309.97L194.05,307.4L195.1,306.69L195.62,306.07L199.3,304.74L201.41,298.28L201.93,295.35L202.46,294.82L206.14,289.95L208.24,286.32L209.3,286.14L210.87,284.01L211.4,280.21L212.45,279.85L214.03,278.79L217.18,277.9L222.44,272.23L223.49,263.91L225.07,263.37L225.6,258.94L226.65,258.86L227.7,258.06L229.8,256.02L230.86,255.93L234.01,241.32L236.12,232.37L236.64,232.19L237.69,226.34L238.74,226.26L239.8,225.55L241.37,225.46L247.68,224.4L248.74,220.59L249.79,220.23L250.31,214.47L251.37,207.56L251.89,206.94L252.42,206.68L253.47,204.82L255.05,203.58L256.1,202.96L257.15,200.48L258.2,200.21L259.78,199.41L264.51,198.97L266.09,198.71L266.62,197.73L271.87,191L283.44,189.05L285.02,184.18L286.07,183.56L287.65,182.14L288.18,179.48L291.86,178.86L292.38,176.82L292.91,176.47L293.44,175.05L293.96,169.83L295.01,169.12L297.64,167.61L298.17,166.46L317.63,163.89L318.15,157.6L320.25,155.3L327.09,155.03L330.25,148.48L330.77,142.1L333.4,138.55L338.13,138.29L341.29,136.61L341.82,128.01L343.39,115.79L343.92,115.61L346.02,92.49L347.07,91.07L348.65,86.47L349.18,82.3L350.75,73.44L351.28,73.18L351.81,72.82L353.91,72.65L356.01,71.85L356.54,69.28L358.12,52.27L359.17,52.09L360.75,49.44L361.27,41.37L361.8,37.57L363.38,33.49L364.95,25.07L608.96,21.09L609.48,21L620,21" style="vector-effect: non-scaling-stroke; fill: none; stroke: rgb(31, 119, 180); stroke-opacity: 1; stroke-width: 2px; opacity: 1;"/></g><g class="points"/><g class="text"/></g></g></g><g class="overplot"/><path class="xlines-above"/><path class="ylines-above"/><g class="overlines-above"/><g class="xaxislayer-above"/><g class="yaxislayer-above"/><g class="overaxes-above"/></g></g><g class="polarlayer"/><g class="ternarylayer"/><g class="geolayer"/><g class="funnelarealayer"/><g class="pielayer"/><g class="treemaplayer"/><g class="sunburstlayer"/><g class="glimages"/><defs id="topdefs-c37719"><g class="clips"/></defs><g class="layer-above"><g class="imagelayer"/><g class="shapelayer"/></g><g class="infolayer"><g class="g-gtitle"><text class="gtitle" x="350" y="20" text-anchor="middle" dy="0em" style="font-family: 'Open Sans'; font-size: 17px; fill: rgb(119, 119, 119); opacity: 1; font-weight: normal; white-space: pre;">Movies</text></g><g class="g-xtitle"/><g class="g-ytitle"><text class="ytitle" transform="rotate(-90,14.700000000000003,250)" x="14.700000000000003" y="250" text-anchor="middle" style="font-family: 'Open Sans'; font-size: 14px; fill: rgb(119, 119, 119); opacity: 1; font-weight: normal; white-space: pre;">Themes</text></g></g></svg>